<svg width="717" height="145" viewBox="0 0 717 145" fill="none" xmlns="http://www.w3.org/2000/svg">
<path d="M593.516 47H583.212L586.262 34.8034H554.666L557.19 24.7097L567.494 12.5131H579.427L569.123 24.7097H588.785L591.834 12.5131H602.138L593.516 47ZM629.535 22.5543H613.921L616.445 12.5131H657.924L655.4 22.5543H639.787L633.688 47H623.437L629.535 22.5543ZM705.518 47H695.214L698.263 34.856H676.972L673.923 47H663.619L672.24 12.5131H682.544L679.443 24.7623H700.734L703.836 12.5131H714.14L705.518 47Z" fill="#55FFAD"/>
<path d="M596.145 52.2571H585.841L588.89 40.0605H557.295L559.818 29.9668L570.122 17.7702H582.056L571.752 29.9668H591.414L594.463 17.7702H604.767L596.145 52.2571ZM632.164 27.8114H616.55L619.074 17.7702H660.552L658.029 27.8114H642.415L636.317 52.2571H626.066L632.164 27.8114ZM708.147 52.2571H697.843L700.892 40.1131H679.601L676.551 52.2571H666.247L674.869 17.7702H685.173L682.071 30.0194H703.363L706.465 17.7702H716.769L708.147 52.2571Z" fill="#9FA6FF"/>
<path d="M592.202 49.6287H581.898L584.947 37.4321H553.352L555.875 27.3384L566.179 15.1418H578.113L567.809 27.3384H587.471L590.52 15.1418H600.824L592.202 49.6287ZM628.221 25.1829H612.607L615.131 15.1418H656.61L654.086 25.1829H638.472L632.374 49.6287H622.123L628.221 25.1829ZM704.204 49.6287H693.9L696.949 37.4847H675.658L672.609 49.6287H662.305L670.926 15.1418H681.23L678.129 27.3909H699.42L702.522 15.1418H712.826L704.204 49.6287Z" fill="white"/>
<g filter="url(#filter0_d_99_5413)">
<path d="M80.2295 65.1713H12.4123V77.0788H39.2238V120.371H53.4181V77.0788H80.2295V65.1713ZM159.811 65.1713V86.7782H114.862V65.1713H100.668V120.371H114.862V98.7645H159.811V120.371H174.005V65.1713H159.811ZM254.421 76.4479V65.1713H196.066V120.371H254.421V109.095H210.261V97.897H254.421V87.6456H210.261V76.4479H254.421ZM386.383 77.0788V65.1713H328.029V120.371H342.223V103.102H381.652V91.1153H342.223V77.0788H386.383ZM470.004 81.7313C470.004 68.0102 458.885 64.3828 439.88 64.3828C421.585 64.3828 408.653 68.4833 408.653 86.857H422.847C422.847 78.1039 428.446 76.2902 440.669 76.2902C452.892 76.2902 455.809 78.2616 455.809 82.8353C455.809 95.3736 407.391 90.2479 407.391 113.195V120.371H469.215V108.464H427.263C430.733 97.5028 470.004 103.102 470.004 81.7313ZM550.15 76.4479V65.1713H491.796V120.371H550.15V109.095H505.99V97.897H550.15V87.6456H505.99V76.4479H550.15Z" fill="#9DA4FF"/>
</g>
<path d="M71.0295 57.2856H3.21239V69.193H30.0238V112.486H44.2181V69.193H71.0295V57.2856ZM150.611 57.2856V78.8924H105.662V57.2856H91.4677V112.486H105.662V90.8787H150.611V112.486H164.805V57.2856H150.611ZM245.221 68.5622V57.2856H186.866V112.486H245.221V101.209H201.061V90.0113H245.221V79.7599H201.061V68.5622H245.221ZM377.183 69.193V57.2856H318.829V112.486H333.023V95.2159H372.452V83.2296H333.023V69.193H377.183ZM460.804 73.8456C460.804 60.1244 449.685 56.497 430.68 56.497C412.386 56.497 399.453 60.5976 399.453 78.9713H413.647C413.647 70.2182 419.246 68.4044 431.469 68.4044C443.692 68.4044 446.61 70.3759 446.61 74.9496C446.61 87.4879 398.191 82.3622 398.191 105.31V112.486H460.015V100.578H418.063C421.533 89.617 460.804 95.2159 460.804 73.8456ZM540.95 68.5622V57.2856H482.596V112.486H540.95V101.209H496.79V90.0113H540.95V79.7599H496.79V68.5622H540.95Z" fill="#55FFAD"/>
<path d="M73.6582 61.2285H5.84106V73.1359H32.6525V116.428H46.8468V73.1359H73.6582V61.2285ZM153.239 61.2285V82.8353H108.291V61.2285H94.0964V116.428H108.291V94.8216H153.239V116.428H167.434V61.2285H153.239ZM247.849 72.505V61.2285H189.495V116.428H247.849V105.152H203.689V93.9542H247.849V83.7027H203.689V72.505H247.849ZM379.812 73.1359V61.2285H321.458V116.428H335.652V99.1588H375.08V87.1725H335.652V73.1359H379.812ZM463.432 77.7885C463.432 64.0673 452.314 60.4399 433.309 60.4399C415.014 60.4399 402.082 64.5405 402.082 82.9142H416.276C416.276 74.161 421.875 72.3473 434.098 72.3473C446.32 72.3473 449.238 74.3187 449.238 78.8925C449.238 91.4308 400.82 86.305 400.82 109.252V116.428H462.644V104.521H420.692C424.162 93.5599 463.432 99.1588 463.432 77.7885ZM543.579 72.505V61.2285H485.225V116.428H543.579V105.152H499.419V93.9542H543.579V83.7027H499.419V72.505H543.579Z" fill="white"/>
<defs>
<filter id="filter0_d_99_5413" x="2.41235" y="54.3828" width="557.738" height="75.9885" filterUnits="userSpaceOnUse" color-interpolation-filters="sRGB">
<feFlood flood-opacity="0" result="BackgroundImageFix"/>
<feColorMatrix in="SourceAlpha" type="matrix" values="0 0 0 0 0 0 0 0 0 0 0 0 0 0 0 0 0 0 127 0" result="hardAlpha"/>
<feOffset/>
<feGaussianBlur stdDeviation="5"/>
<feComposite in2="hardAlpha" operator="out"/>
<feColorMatrix type="matrix" values="0 0 0 0 0.615686 0 0 0 0 0.643137 0 0 0 0 1 0 0 0 0.6 0"/>
<feBlend mode="normal" in2="BackgroundImageFix" result="effect1_dropShadow_99_5413"/>
<feBlend mode="normal" in="SourceGraphic" in2="effect1_dropShadow_99_5413" result="shape"/>
</filter>
</defs>
</svg>
