<svg width="416" height="225" viewBox="0 0 416 225" fill="none" xmlns="http://www.w3.org/2000/svg">
<path d="M87.7633 55.3305C88.5228 52.2886 89.2246 49.1312 89.9563 45.9023C90.3674 44.0877 91.9823 42.8048 93.8429 42.8048H115.884C115.516 45.6776 115.094 48.7128 114.658 51.8706C114.384 53.8524 112.691 55.3305 110.69 55.3305H87.7633ZM125.491 79.981C127.575 67.3799 129.719 53.0492 131.325 40.2097C132.056 34.3727 127.47 29.2771 121.588 29.2771V29.2771H118.986L93 31.5182C93.8006 27.7104 95.2687 21.6615 95.9692 17.9539H145.305V4.02537H58.7424V17.9539H80.0577C77.8893 29.861 74.8409 43.3837 71.7667 55.0657C69.996 61.7943 75.2232 68.476 82.1715 68.1159L113 66.5182C112.4 70.326 110.88 76.3736 110.179 79.981H55.8403V94.11H148.207V79.981H125.491Z" fill="#06102B"/>
<path d="M193.74 75.4718H211.152C210.652 76.2734 210.152 76.9749 209.651 77.6763C204.347 78.0771 199.044 78.4779 193.74 78.8788V75.4718ZM175.627 53.9276V50.9215H180.63V53.9276H175.627ZM175.627 39.6985H180.63V42.7046H175.627V39.6985ZM198.643 39.6985V42.7046H193.74V39.6985H198.643ZM198.643 53.9276H193.74V50.9215H198.643V53.9276ZM234.269 23.1646C234.369 16.7515 234.369 9.93749 234.369 2.82291H220.459C220.459 10.0377 220.459 17.7053 220.459 24.0182L212.253 24.5182V38.0182L220 37.5182C219.299 53.6512 217.457 65.4513 211.152 75.4718V65.351H193.74V62.7457H200.552C206.075 62.7457 210.552 58.2685 210.552 52.7457V40.8804C210.552 35.3576 206.075 30.8804 200.552 30.8804H193.74V28.3753H211.853V18.0541H193.74V14.5469C199.944 13.8455 205.848 13.0439 211.052 11.9416L204.948 1.21962C193.54 3.62455 176.627 5.32804 161.617 6.02948C162.917 8.83523 164.319 13.3445 164.719 16.2504C169.822 16.1502 175.226 15.9498 180.63 15.6492V18.0541H161.817V28.3753H180.63V30.8804H174.218C168.696 30.8804 164.218 35.3576 164.218 40.8804V52.7457C164.218 58.2685 168.696 62.7457 174.218 62.7457H180.63V65.351H163.818V75.4718H180.63V79.7806C173.225 80.2816 166.52 80.6825 161.016 80.9831L162.114 89.2248C162.396 91.3422 164.289 92.8649 166.417 92.6802C177.589 91.7109 191.529 90.4455 205.148 89.0997C207.65 91.6048 210.252 94.7112 211.553 97.0159C227.964 83.6886 232.599 64.0736 234 37.0182L239.973 36.4919C239.473 66.5535 238.672 78.2775 236.771 80.8829C235.77 82.2857 234.869 82.6866 233.368 82.6866C231.367 82.6866 227.964 82.6866 223.962 82.2857C225.64 85.1362 226.946 89.053 227.647 92.5194C228.055 94.5398 229.738 96.1571 231.799 96.1613C235.236 96.1682 238.392 96.0345 240.774 95.5129C244.276 94.7112 246.778 93.5087 249.28 89.7009C252.482 84.9913 253.183 69.9605 253.983 29.3773V29.3773C253.983 25.1469 250.367 21.8202 246.151 22.1723L234.269 23.1646Z" fill="#06102B"/>
<path d="M302.618 54.8295H317.329V40.8007H274.498V54.8295H288.108V76.1732C281.403 77.1753 275.198 78.0771 270.295 78.6784L273.236 89.7775C273.777 91.8187 275.81 93.0882 277.881 92.6776C290.467 90.1828 306.187 87.086 320.831 83.9892L319.831 71.0628C314.127 72.0648 308.322 72.9667 302.618 73.8685V54.8295ZM361.16 31.2812V17.0521H352.454L359.459 11.0398C357.957 9.25697 355.558 7.10248 353.001 5.04128C349.52 2.2353 344.569 2.48004 341.119 5.3232L337.343 8.43441C340.546 10.8393 344.348 14.1461 347.05 17.0521H334.341C334.241 11.8414 334.241 6.53051 334.441 1.31983H318.73C318.73 6.53051 318.83 11.8414 318.93 17.0521H270.595V31.2812H319.63C321.832 65.9523 328.937 96.1141 346.65 96.1141C357.158 96.1141 361.961 91.705 364.063 71.664V71.664C358.608 69.6657 351.373 72.8728 349.685 78.4314C349.202 80.0235 348.626 80.7827 347.951 80.7827C342.047 80.7827 336.843 58.3367 334.942 31.2812H361.16Z" fill="#06102B"/>
<path d="M3.40245 196.36C3.00216 204.477 2.10152 213.395 0 219.107C1.38221 219.48 3.44221 220.107 5.41487 220.808C7.79503 221.655 10.6244 220.466 11.1765 218.001C12.465 212.247 13.3247 205.007 13.7099 198.064L3.40245 196.36ZM14.4104 197.964C15.311 204.577 16.2117 213.195 16.3118 219.007L23.109 217.151C24.9242 216.655 26.1526 214.962 26.0003 213.086C25.5632 207.706 24.7083 201.018 23.7171 195.559L14.4104 197.964ZM68.3493 196.962C67.0484 196.962 66.8482 196.06 66.8482 194.056V190.148H78.6567V179.426H68.0491L68.5565 179.248C70.5289 178.557 71.5786 176.479 70.7958 174.541C70.4807 173.761 70.1514 172.965 69.8504 172.211H78.5567V161.489H75.4544C76.4551 157.982 77.5559 153.773 78.8569 149.665L69.35 147.36C68.8496 151.468 67.6488 157.28 66.6481 161.489H60.0433L64.9468 159.786C64.5465 156.379 63.1455 151.068 61.4443 147.16L53.4385 149.765C54.8396 153.372 56.0404 157.982 56.4407 161.489H52.738V172.211H66.0476L59.4429 174.215C60.0433 175.818 60.7438 177.722 61.2442 179.426H52.8381V190.148H55.44V193.956C55.44 202.874 57.3414 206.581 66.9483 206.581H72.7525C73.7181 206.581 74.7682 206.56 75.767 206.479C77.6126 206.329 78.6678 204.586 78.5082 202.741C78.3196 200.561 78.188 198.172 78.0563 196.26C76.6553 196.761 73.9533 196.962 72.4523 196.962H68.3493ZM93.3673 143.231C93.3673 137.708 88.8902 133.231 83.3673 133.231H48.5278C43.0049 133.231 38.5278 137.708 38.5278 143.231V184.436C37.1268 180.027 35.1253 174.315 33.324 169.806L24.2175 173.313C24.8179 175.017 25.4183 176.921 26.0188 178.825L18.7135 179.827C25.9187 170.808 32.9237 160.086 38.1275 149.665L27.8201 142.851C25.8186 147.661 23.4169 152.571 20.9151 157.08L19.768 157.148C18.1295 157.244 17.069 155.428 17.9215 154.026C21.6659 147.866 25.2051 140.922 27.8201 134.333L16.4118 129.524C13.3096 139.945 7.70556 150.867 5.80419 153.673C4.63114 155.565 3.54297 156.99 2.37386 157.92C1.43501 158.667 0.818941 159.954 1.2441 161.075C2.08497 163.294 2.96075 165.948 3.60676 168.012C3.97957 169.204 5.34659 169.812 6.55388 169.494C8.07659 169.092 10.3698 168.683 14.2102 168.203C11.9086 171.71 10.0072 174.315 8.90642 175.618C6.66646 178.367 5.0004 180.333 3.23016 181.478C2.19719 182.145 1.5424 183.454 1.98521 184.601C2.81897 186.762 3.70591 189.347 4.32286 191.401C4.70463 192.672 6.18545 193.365 7.45007 192.963C10.3368 192.044 15.8075 190.898 29.0209 188.645C29.1206 189.111 29.2314 189.566 29.3422 190.006C29.6562 191.253 31.0499 191.966 32.2314 191.457L38.5278 188.745V208.285C37.3269 203.475 35.4256 197.363 33.6243 192.352L24.918 195.459C26.8193 201.471 29.0209 209.387 29.8215 214.598L38.5278 211.191V224.518H51.2369V145.757H80.458V210.69C80.458 211.993 80.0577 212.393 78.7568 212.494C77.5559 212.494 73.8533 212.494 70.8511 212.293C71.9041 214.543 73.0064 217.926 73.7088 220.922C74.1719 222.897 75.8838 224.433 77.9115 224.374C82.5934 224.239 86.1373 223.731 88.9642 222.113C92.3666 220.009 93.3673 216.802 93.3673 210.79V143.231Z" fill="#06102B"/>
<path d="M135.798 189.346H174.126V192.853H135.798V189.346ZM135.798 175.618H174.126V179.125H135.798V175.618ZM135.798 161.99H174.126V165.497H135.798V161.99ZM180.137 203.776C185.66 203.776 190.137 199.299 190.137 193.776V161.068C190.137 155.545 185.66 151.068 180.137 151.068H161.917C162.417 149.665 162.918 148.262 163.418 146.759H196.842V133.532H112.581V146.759H146.606C146.406 148.162 146.205 149.665 145.905 151.068H130.587C125.064 151.068 120.587 155.545 120.587 161.068V193.776C120.587 199.299 125.064 203.776 130.587 203.776H134.397C127.092 207.283 116.884 211.091 108.578 213.095C110.612 215.008 113.025 217.604 115.139 220.066C117.29 222.569 120.684 223.748 123.826 222.74C133.259 219.716 144.084 215.327 151.809 211.291L142.603 203.776H167.421L158.514 211.391C167.088 214.44 176.047 218.582 182.514 222.015C185.192 223.436 188.441 223.375 190.983 221.723L201.645 214.798C195.141 211.692 184.533 207.383 174.626 203.776H180.137Z" fill="#06102B"/>
<path d="M251.181 159.986H219.758V170.808H251.181V163.092C253.883 165.698 257.085 169.606 258.486 171.81C270.595 165.698 273.898 155.276 274.398 145.657H283.705V153.272C283.705 164.696 285.806 169.706 296.814 169.706H301.317C303.519 169.706 305.821 169.606 307.322 168.804C306.921 165.497 306.621 160.487 306.421 156.88C305.12 157.381 302.718 157.681 301.217 157.681H298.315C297.214 157.681 297.014 156.379 297.014 153.473V142.229C297.014 136.706 292.537 132.229 287.014 132.229H271.188C265.665 132.229 261.188 136.706 261.188 142.229V142.951C261.188 148.963 260.288 155.276 251.181 160.086V159.986ZM255.284 145.657H237.571L243.576 142.45C242.245 139.075 239.735 134.282 237.3 130.236C236.778 129.368 235.68 129.049 234.764 129.483L225.162 134.033C227.064 137.54 229.265 141.949 230.766 145.657H215.455V156.98H255.284V145.657ZM251.481 173.814H219.758V184.636H251.481V173.814ZM287.908 185.839C285.506 190.248 282.604 194.056 279.001 197.363C274.798 194.056 271.296 190.148 268.694 185.839H287.908ZM238.872 207.584H232.167V199.367H238.872V207.584ZM298.315 171.81L294.813 172.311H253.383V185.839H263.49L255.484 188.645C258.887 194.958 262.79 200.469 267.393 205.279C262.589 207.684 257.185 209.487 251.281 210.79V197.943C251.281 192.42 246.804 187.943 241.281 187.943H229.959C224.436 187.943 219.959 192.42 219.959 197.943V223.115H232.167V219.107H251.281V213.496C253.383 216.802 255.484 221.111 256.585 224.117C265.091 221.913 272.597 218.907 279.201 214.798C283.989 217.795 289.336 220.231 295.285 222.107C298.881 223.242 302.668 221.373 304.677 218.181C306.513 215.263 308.644 212.331 310.424 210.489C303.419 209.287 297.014 207.283 291.41 204.778C296.68 199.112 300.87 192.065 303.933 183.448C305.543 178.92 303.164 174.056 298.804 172.036L298.315 171.81Z" fill="#06102B"/>
<path d="M367.365 145.657H347.551L353.555 142.45C352.224 139.075 349.714 134.282 347.28 130.236C346.757 129.368 345.66 129.049 344.743 129.483L335.142 134.033C337.043 137.54 339.245 141.949 340.746 145.657H324.534V156.98H367.365V145.657ZM363.162 170.808V159.986H328.837V170.808H363.162ZM362.962 173.814H328.837V184.636H362.962V173.814ZM350.953 199.367V207.584H341.246V199.367H350.953ZM363.362 197.943C363.362 192.42 358.885 187.943 353.362 187.943H339.037C333.514 187.943 329.037 192.42 329.037 197.943V223.115H341.246V219.107H363.362V197.943ZM416 161.89H398.487V131.027H383.276V161.89H366.865V176.219H383.276V224.418H398.487V176.219H416V161.89Z" fill="#06102B"/>
</svg>
