<svg width="577" height="105" viewBox="0 0 577 105" fill="none" xmlns="http://www.w3.org/2000/svg">
<g filter="url(#filter0_d_99_5418)">
<path d="M80.64 24.3713H11.84V36.4513H39.04V80.3713H53.44V36.4513H80.64V24.3713ZM161.374 24.3713V46.2913H115.774V24.3713H101.374V80.3713H115.774V58.4513H161.374V80.3713H175.774V24.3713H161.374ZM257.356 35.8113V24.3713H198.156V80.3713H257.356V68.9313H212.556V57.5713H257.356V47.1713H212.556V35.8113H257.356ZM391.231 36.4513V24.3713H332.031V80.3713H346.431V62.8513H386.431V50.6913H346.431V36.4513H391.231ZM476.063 41.1713C476.063 27.2513 464.783 23.5713 445.503 23.5713C426.943 23.5713 413.823 27.7313 413.823 46.3713H428.223C428.223 37.4913 433.903 35.6513 446.303 35.6513C458.703 35.6513 461.663 37.6513 461.663 42.2913C461.663 55.0113 412.543 49.8113 412.543 73.0913V80.3713H475.263V68.2913H432.703C436.223 57.1713 476.063 62.8513 476.063 41.1713ZM557.371 35.8113V24.3713H498.171V80.3713H557.371V68.9313H512.571V57.5713H557.371V47.1713H512.571V35.8113H557.371Z" fill="#9DA4FF"/>
</g>
<path d="M71.44 16.4856H2.64V28.5656H29.84V72.4856H44.24V28.5656H71.44V16.4856ZM152.174 16.4856V38.4056H106.574V16.4856H92.1744V72.4856H106.574V50.5656H152.174V72.4856H166.574V16.4856H152.174ZM248.156 27.9256V16.4856H188.956V72.4856H248.156V61.0456H203.356V49.6856H248.156V39.2856H203.356V27.9256H248.156ZM382.031 28.5656V16.4856H322.831V72.4856H337.231V54.9656H377.231V42.8056H337.231V28.5656H382.031ZM466.863 33.2856C466.863 19.3656 455.583 15.6856 436.303 15.6856C417.743 15.6856 404.623 19.8456 404.623 38.4856H419.023C419.023 29.6056 424.703 27.7656 437.103 27.7656C449.503 27.7656 452.463 29.7656 452.463 34.4056C452.463 47.1256 403.343 41.9256 403.343 65.2056V72.4856H466.063V60.4056H423.503C427.023 49.2856 466.863 54.9656 466.863 33.2856ZM548.171 27.9256V16.4856H488.971V72.4856H548.171V61.0456H503.371V49.6856H548.171V39.2856H503.371V27.9256H548.171Z" fill="#55FFAD"/>
<path d="M74.0687 20.4285H5.26866V32.5085H32.4687V76.4285H46.8687V32.5085H74.0687V20.4285ZM154.803 20.4285V42.3485H109.203V20.4285H94.803V76.4285H109.203V54.5085H154.803V76.4285H169.203V20.4285H154.803ZM250.784 31.8685V20.4285H191.584V76.4285H250.784V64.9885H205.984V53.6285H250.784V43.2285H205.984V31.8685H250.784ZM384.659 32.5085V20.4285H325.459V76.4285H339.859V58.9085H379.859V46.7485H339.859V32.5085H384.659ZM469.492 37.2285C469.492 23.3085 458.212 19.6285 438.932 19.6285C420.372 19.6285 407.252 23.7885 407.252 42.4285H421.652C421.652 33.5485 427.332 31.7085 439.732 31.7085C452.132 31.7085 455.092 33.7085 455.092 38.3485C455.092 51.0685 405.972 45.8685 405.972 69.1485V76.4285H468.692V64.3485H426.132C429.652 53.2285 469.492 58.9085 469.492 37.2285ZM550.8 31.8685V20.4285H491.6V76.4285H550.8V64.9885H506V53.6285H550.8V43.2285H506V31.8685H550.8Z" fill="white"/>
<defs>
<filter id="filter0_d_99_5418" x="1.83984" y="13.5713" width="565.531" height="76.8" filterUnits="userSpaceOnUse" color-interpolation-filters="sRGB">
<feFlood flood-opacity="0" result="BackgroundImageFix"/>
<feColorMatrix in="SourceAlpha" type="matrix" values="0 0 0 0 0 0 0 0 0 0 0 0 0 0 0 0 0 0 127 0" result="hardAlpha"/>
<feOffset/>
<feGaussianBlur stdDeviation="5"/>
<feComposite in2="hardAlpha" operator="out"/>
<feColorMatrix type="matrix" values="0 0 0 0 0.615686 0 0 0 0 0.643137 0 0 0 0 1 0 0 0 0.6 0"/>
<feBlend mode="normal" in2="BackgroundImageFix" result="effect1_dropShadow_99_5418"/>
<feBlend mode="normal" in="SourceGraphic" in2="effect1_dropShadow_99_5418" result="shape"/>
</filter>
</defs>
</svg>
