<svg width="167" height="62" viewBox="0 0 167 62" fill="none" xmlns="http://www.w3.org/2000/svg">
<path d="M47.0589 52.2571H36.8669L39.8829 40.1931H8.63092L11.1269 30.2091L21.3189 18.1451H33.1229L22.9309 30.2091H42.3789L45.3949 18.1451H55.5869L47.0589 52.2571ZM82.6862 28.0771H67.2422L69.7382 18.1451H110.766L108.27 28.0771H92.8262L86.7942 52.2571H76.6542L82.6862 28.0771ZM157.843 52.2571H147.651L150.667 40.2451H129.607L126.591 52.2571H116.399L124.927 18.1451H135.119L132.051 30.2611H153.111L156.179 18.1451H166.371L157.843 52.2571Z" fill="#9FA6FF"/>
<path d="M43.4303 47H33.2383L36.2543 34.936H5.00226L7.49826 24.952L17.6903 12.888H29.4943L19.3023 24.952H38.7503L41.7663 12.888H51.9583L43.4303 47ZM79.0576 22.82H63.6136L66.1096 12.888H107.138L104.642 22.82H89.1976L83.1656 47H73.0256L79.0576 22.82ZM154.215 47H144.023L147.039 34.988H125.979L122.963 47H112.771L121.299 12.888H131.491L128.423 25.004H149.483L152.551 12.888H162.743L154.215 47Z" fill="#55FFAD"/>
<path d="M44.1161 49.6287H33.9241L36.9401 37.5647H5.68805L8.18405 27.5807L18.3761 15.5167H30.18L19.988 27.5807H39.4361L42.4521 15.5167H52.6441L44.1161 49.6287ZM79.7434 25.4487H64.2994L66.7954 15.5167H107.823L105.327 25.4487H89.8834L83.8514 49.6287H73.7114L79.7434 25.4487ZM154.9 49.6287H144.708L147.724 37.6167H126.664L123.648 49.6287H113.456L121.984 15.5167H132.176L129.108 27.6327H150.168L153.236 15.5167H163.428L154.9 49.6287Z" fill="white"/>
</svg>
