<svg width="2240" height="59" xmlns="http://www.w3.org/2000/svg">
 <defs>
  <clipPath id="clip0_202_13362">
   <rect id="svg_1" x="0" y="0.996826" fill="white" height="58" width="1920"/>
  </clipPath>
  <linearGradient y2="1.324689" x2="0.500291" y1="-0.179461" x1="0.500291" id="paint2_linear_202_13362">
   <stop stop-color="#9FA6FF"/>
   <stop stop-color="#55FFAD" offset="1"/>
  </linearGradient>
  <linearGradient y2="1.064355" x2="0.500021" y1="-0.064355" x1="0.500021" id="paint3_linear_202_13362">
   <stop stop-color="#9FA6FF"/>
   <stop stop-color="#55FFAD" offset="1"/>
  </linearGradient>
  <linearGradient y2="1.324689" x2="0.500284" y1="-0.179461" x1="0.500284" id="paint4_linear_202_13362">
   <stop stop-color="#9FA6FF"/>
   <stop stop-color="#55FFAD" offset="1"/>
  </linearGradient>
  <linearGradient y2="1.064355" x2="0.499799" y1="-0.064355" x1="0.499799" id="paint5_linear_202_13362">
   <stop stop-color="#9FA6FF"/>
   <stop stop-color="#55FFAD" offset="1"/>
  </linearGradient>
  <linearGradient y2="1.324689" x2="0.50028" y1="-0.179461" x1="0.50028" id="paint6_linear_202_13362">
   <stop stop-color="#9FA6FF"/>
   <stop stop-color="#55FFAD" offset="1"/>
  </linearGradient>
  <linearGradient y2="1.064355" x2="0.500001" y1="-0.064355" x1="0.500001" id="paint7_linear_202_13362">
   <stop stop-color="#9FA6FF"/>
   <stop stop-color="#55FFAD" offset="1"/>
  </linearGradient>
  <linearGradient y2="1.324689" x2="0.50028" y1="-0.179461" x1="0.50028" id="paint8_linear_202_13362">
   <stop stop-color="#9FA6FF"/>
   <stop stop-color="#55FFAD" offset="1"/>
  </linearGradient>
  <linearGradient y2="1.064355" x2="0.499997" y1="-0.064355" x1="0.499997" id="paint9_linear_202_13362">
   <stop stop-color="#9FA6FF"/>
   <stop stop-color="#55FFAD" offset="1"/>
  </linearGradient>
 </defs>
 <g>
  <title>background</title>
  <rect fill="none" id="canvas_background" height="61" width="2242" y="-1" x="-1"/>
 </g>
 <g>
  <title>Layer 1</title>
  <path opacity="0.8" id="svg_4" fill="url(#paint2_linear_202_13362)" d="m64.641395,13.717343l2,0l0,-1.99998l-2,0l0,1.99998zm-24.576,0l0,-1.99998l-2,0l0,1.99998l2,0zm0,7.248l-2,0l0,2l2,0l0,-2zm15.936,0l2,0l0,-2l-2,0l0,2zm-23.04,9.504l2,0l0,-2l-2,0l0,2zm-8.64,0l0,-2l-2,0l0,2l2,0zm40.32,-18.75198l-24.576,0l0,3.99998l24.576,0l0,-3.99998zm-26.576,1.99998l0,7.248l4,0l0,-7.248l-4,0zm2,9.248l15.936,0l0,-4l-15.936,0l0,4zm13.936,-2l0,9.504l4,0l0,-9.504l-4,0zm0,9.504c0,2.2148 -0.328,4.1326 -1.468,5.5118c-1.08,1.3062 -3.27,2.5682 -8.052,2.5682l0,4c5.441,0 9.011,-1.45 11.135,-4.0197c2.064,-2.4968 2.385,-5.6191 2.385,-8.0603l-4,0zm-9.52,8.08c-4.788,0 -6.977,-1.2531 -8.055,-2.5526c-1.137,-1.3711 -1.465,-3.2852 -1.465,-5.5274l-4,0c0,2.4619 0.319,5.5877 2.386,8.0806c2.127,2.5646 5.698,3.9994 11.134,3.9994l0,-4zm-11.52,-10.08l-8.64,0l0,4l8.64,0l0,-4zm-10.64,2c0,6.2094 1.689,11.1931 5.586,14.5679c3.837,3.3219 9.447,4.7601 16.574,4.7601l0,-4c-6.698,0 -11.167,-1.3697 -13.955,-3.7839c-2.727,-2.3612 -4.205,-6.0414 -4.205,-11.5441l-4,0zm22.16,19.328c7.107,0 12.716,-1.4525 16.555,-4.7782c3.9,-3.3777 5.605,-8.358 5.605,-14.5498l-4,0c0,5.4723 -1.487,9.156 -4.224,11.5263c-2.796,2.4222 -7.268,3.8017 -13.936,3.8017l0,4zm22.16,-19.328l0,-16.752l-4,0l0,16.752l4,0zm25.8,19.328c7.599,0 13.435,-1.5889 17.386,-4.968c4.014,-3.4322 5.734,-8.4055 5.734,-14.36l-4,0c0,5.1815 -1.471,8.8722 -4.334,11.32c-2.924,2.5009 -7.648,4.008 -14.786,4.008l0,4zm23.12,-19.328c0,-5.9333 -1.722,-10.8844 -5.738,-14.2979c-3.952,-3.35852 -9.787,-4.93408 -17.382,-4.93408l0,3.99998c7.141,0 11.867,1.4965 14.791,3.982c2.86,2.4304 4.329,6.0954 4.329,11.25l4,0zm-23.12,-19.23198c-7.614,0 -13.451,1.56145 -17.399,4.91588c-4.014,3.4107 -5.721,8.3652 -5.721,14.3161l4,0c0,-5.185 1.462,-8.8466 4.311,-11.2678c2.916,-2.4776 7.639,-3.9642 14.809,-3.9642l0,-3.99998zm-23.12,19.23198c0,5.9721 1.705,10.9488 5.717,14.3782c3.948,3.3751 9.786,4.9498 17.403,4.9498l0,-4c-7.166,0 -11.888,-1.4972 -14.804,-3.9902c-2.853,-2.4386 -4.316,-6.1259 -4.316,-11.3378l-4,0zm23.12,8.08c-4.332,0 -6.873,-0.7805 -8.329,-1.9878c-1.364,-1.1301 -2.151,-2.957 -2.151,-6.0922l-4,0c0,3.7769 0.965,6.9899 3.598,9.1719c2.539,2.1046 6.239,2.9081 10.882,2.9081l0,-4zm-10.48,-8.08c0,-3.1143 0.777,-4.9111 2.127,-6.0212c1.449,-1.1914 3.989,-1.9628 8.353,-1.9628l0,-4c-4.659,0 -8.359,0.7887 -10.894,2.8732c-2.634,2.166 -3.586,5.3612 -3.586,9.1108l4,0zm10.48,-7.984c4.359,0 6.9,0.7812 8.351,1.9785c1.355,1.1181 2.129,2.9191 2.129,6.0055l4,0c0,-3.7296 -0.953,-6.9206 -3.583,-9.0905c-2.533,-2.0907 -6.231,-2.8935 -10.897,-2.8935l0,4zm10.48,7.984c0,3.1073 -0.785,4.9384 -2.153,6.0765c-1.458,1.2132 -4,2.0035 -8.327,2.0035l0,4c4.65,0 8.348,-0.8176 10.885,-2.9284c2.628,-2.1859 3.595,-5.3948 3.595,-9.1516l-4,0zm26.267,-16.752l2,0l0,-1.99998l-2,0l0,1.99998zm-8.64,0l0,-1.99998l-2,0l0,1.99998l2,0zm0,33.6l-2,0l0,2l2,0l0,-2zm8.64,0l0,2l2,0l0,-2l-2,0zm0,-35.59998l-8.64,0l0,3.99998l8.64,0l0,-3.99998zm-10.64,1.99998l0,33.6l4,0l0,-33.6l-4,0zm2,35.6l8.64,0l0,-4l-8.64,0l0,4zm10.64,-2l0,-33.6l-4,0l0,33.6l4,0zm40.324,-33.6l0,-1.99998l-2,0l0,1.99998l2,0zm0,25.248l-1.48,1.3451l3.48,3.8296l0,-5.1747l-2,0zm-22.944,-25.248l1.48,-1.34504l-0.595,-0.65494l-0.885,0l0,1.99998zm-11.712,0l0,-1.99998l-2,0l0,1.99998l2,0zm0,33.6l-2,0l0,2l2,0l0,-2zm8.64,0l0,2l2,0l0,-2l-2,0zm0,-25.2l1.481,-1.3449l-3.481,-3.8305l0,5.1754l2,0zm22.896,25.2l-1.48,1.345l0.595,0.655l0.885,0l0,-2zm11.76,0l0,2l2,0l0,-2l-2,0zm0,-33.6l2,0l0,-1.99998l-2,0l0,1.99998zm-10.64,0l0,25.248l4,0l0,-25.248l-4,0zm3.48,23.903l-22.944,-25.24804l-2.96,2.69014l22.944,25.248l2.96,-2.6901zm-24.424,-25.90298l-11.712,0l0,3.99998l11.712,0l0,-3.99998zm-13.712,1.99998l0,33.6l4,0l0,-33.6l-4,0zm2,35.6l8.64,0l0,-4l-8.64,0l0,4zm10.64,-2l0,-25.2l-4,0l0,25.2l4,0zm-3.48,-23.8551l22.896,25.2001l2.961,-2.6899l-22.896,-25.2l-2.961,2.6898zm24.376,25.8551l11.76,0l0,-4l-11.76,0l0,4zm13.76,-2l0,-33.6l-4,0l0,33.6l4,0zm-2,-35.59998l-8.64,0l0,3.99998l8.64,0l0,-3.99998zm75.999,1.99998l2,0l0,-1.99998l-2,0l0,1.99998zm-8.64,0l0,-1.99998l-2,0l0,1.99998l2,0zm-24.96,0l2,0l0,-1.99998l-2,0l0,1.99998zm-8.64,0l0,-1.99998l-2,0l0,1.99998l2,0zm44.24,16.752l0,-16.752l-4,0l0,16.752l4,0zm-2,-18.75198l-8.64,0l0,3.99998l8.64,0l0,-3.99998zm-10.64,1.99998l0,16.752l4,0l0,-16.752l-4,0zm0,16.752c0,2.211 -0.327,4.0916 -1.541,5.4576c-1.183,1.3312 -3.623,2.6224 -8.939,2.6224l0,4c5.869,0 9.668,-1.4207 11.929,-3.9655c2.231,-2.51 2.551,-5.6695 2.551,-8.1145l-4,0zm-10.48,8.08c-5.321,0 -7.76,-1.2819 -8.941,-2.6067c-1.21,-1.358 -1.539,-3.2348 -1.539,-5.4733l-4,0c0,2.4656 0.32,5.6288 2.553,8.1348c2.263,2.5391 6.064,3.9452 11.927,3.9452l0,-4zm-10.48,-8.08l0,-16.752l-4,0l0,16.752l4,0zm-2,-18.75198l-8.64,0l0,3.99998l8.64,0l0,-3.99998zm-10.64,1.99998l0,16.752l4,0l0,-16.752l-4,0zm0,16.752c0,6.2118 1.692,11.2133 5.734,14.5907c3.961,3.3099 9.807,4.7373 17.386,4.7373l0,-4c-7.205,0 -11.918,-1.3806 -14.821,-3.8067c-2.823,-2.3585 -4.299,-6.0211 -4.299,-11.5213l-4,0zm23.12,19.328c7.561,0 13.405,-1.4414 17.369,-4.7555c4.044,-3.3804 5.751,-8.3782 5.751,-14.5725l-4,0c0,5.4698 -1.484,9.1359 -4.316,11.5036c-2.912,2.4338 -7.628,3.8244 -14.804,3.8244l0,4zm28.084,-14.048l0,-2l-2,0l0,2l2,0zm21.456,-8.688l-0.117,1.9966l0.008,0.0005l0.109,-1.9971zm11.376,-2.352l-2,0l0,2l2,0l0,-2zm8.64,0l0,2l2,0l0,-2l-2,0zm-20.016,8.784l0.097,-1.9976l-0.005,-0.0003l-0.092,1.9979zm-12.816,2.256l2,0l0,-2l-2,0l0,2zm-10.64,0c0,2.7096 0.576,5.061 1.799,7.029c1.226,1.9716 3.008,3.4068 5.166,4.4362c4.215,2.0101 10.112,2.5828 17.019,2.5828l0,-4c-6.869,0 -11.963,-0.6032 -15.297,-2.1932c-1.616,-0.7705 -2.747,-1.7414 -3.491,-2.9377c-0.746,-1.2001 -1.196,-2.7787 -1.196,-4.9171l-4,0zm23.984,14.048c6.224,0 11.825,-0.4414 15.915,-2.196c2.089,-0.8966 3.88,-2.1745 5.136,-3.9925c1.264,-1.8274 1.877,-4.0406 1.877,-6.6115l-4,0c0,1.9172 -0.449,3.2979 -1.167,4.337c-0.725,1.0485 -1.835,1.9097 -3.424,2.591c-3.266,1.4015 -8.129,1.872 -14.337,1.872l0,4zm22.928,-12.8c0,-2.4586 -0.6,-4.5545 -1.902,-6.2525c-1.286,-1.6766 -3.105,-2.7676 -5.182,-3.5137c-4.044,-1.4527 -9.743,-1.8124 -16.263,-2.1668l-0.218,3.9941c6.728,0.3656 11.757,0.7258 15.129,1.9372c1.631,0.5858 2.692,1.3129 3.359,2.1832c0.651,0.849 1.077,2.0292 1.077,3.8185l4,0zm-23.339,-11.9325c-4.979,-0.2929 -7.665,-0.5531 -9.121,-0.9879c-0.694,-0.2072 -0.81,-0.3741 -0.787,-0.3466c0.058,0.0711 -0.017,0.0762 -0.017,-0.317l-4,0c0,0.9029 0.177,1.9399 0.919,2.8481c0.707,0.8645 1.707,1.3395 2.741,1.6483c2,0.5973 5.218,0.8651 10.031,1.1482l0.234,-3.9931zm-9.925,-1.6515c0,-0.1812 0.019,-0.2817 0.032,-0.3293c0.006,-0.0225 0.011,-0.0331 0.012,-0.0357c0.001,-0.0021 0.001,-0.0022 0.002,-0.0028c0,-0.0007 0.006,-0.008 0.021,-0.0215c0.015,-0.014 0.043,-0.0369 0.09,-0.0667c0.097,-0.0613 0.264,-0.1458 0.539,-0.2364c1.216,-0.4006 3.528,-0.6196 7.816,-0.6196l0,-4c-4.207,0 -7.151,0.189 -9.068,0.8205c-1.007,0.3317 -1.941,0.8499 -2.594,1.7183c-0.668,0.8868 -0.85,1.8813 -0.85,2.7732l4,0zm8.512,-1.312c4.515,0 7.369,0.242 9.063,0.8132c0.807,0.2722 1.166,0.5614 1.333,0.769c0.142,0.1764 0.276,0.4535 0.276,1.0258l4,0c0,-1.2756 -0.328,-2.4986 -1.159,-3.5326c-0.807,-1.003 -1.933,-1.6347 -3.172,-2.0525c-2.398,-0.8088 -5.88,-1.0229 -10.341,-1.0229l0,4zm12.672,4.608l8.64,0l0,-4l-8.64,0l0,4zm10.64,-2c0,-2.3954 -0.558,-4.5302 -1.703,-6.3578c-1.142,-1.8221 -2.793,-3.2193 -4.795,-4.265c-3.939,-2.05699 -9.421,-2.84918 -15.854,-2.84918l0,3.99998c6.239,0 10.933,0.7918 14.002,2.3948c1.502,0.7844 2.563,1.7361 3.257,2.8436c0.691,1.1019 1.093,2.477 1.093,4.2336l4,0zm-22.352,-13.47198c-6.337,0 -11.717,0.58059 -15.574,2.26768c-1.962,0.8584 -3.624,2.0432 -4.79,3.6703c-1.178,1.6449 -1.748,3.5994 -1.748,5.806l4,0c0,-1.4894 0.373,-2.6009 1,-3.4759c0.64,-0.893 1.648,-1.6822 3.142,-2.3358c3.055,-1.3369 7.731,-1.9323 13.97,-1.9323l0,-3.99998zm-22.112,11.74398c0,2.1396 0.413,4.0796 1.422,5.7577c1.014,1.6869 2.527,2.9387 4.435,3.8696c3.695,1.8038 9.192,2.5472 16.499,2.8826l0.184,-3.9958c-7.333,-0.3366 -12.06,-1.0811 -14.929,-2.4814c-1.374,-0.671 -2.228,-1.4502 -2.761,-2.3359c-0.537,-0.8943 -0.85,-2.0684 -0.85,-3.6968l-4,0zm22.351,12.5097c5.538,0.2683 8.469,0.5195 10.034,0.9732c0.744,0.2157 0.86,0.3944 0.838,0.3658c-0.047,-0.0585 0.041,-0.031 0.041,0.4553l4,0c0,-0.9056 -0.152,-1.9821 -0.899,-2.9301c-0.723,-0.9182 -1.768,-1.4145 -2.866,-1.7328c-2.119,-0.6143 -5.596,-0.8671 -10.954,-1.1267l-0.194,3.9953zm10.913,1.7943c0,0.2869 -0.062,0.3521 -0.089,0.384c-0.067,0.0785 -0.308,0.2963 -1.023,0.5253c-1.486,0.4758 -4.149,0.7387 -8.696,0.7387l0,4c4.525,0 7.766,-0.241 9.916,-0.9292c1.103,-0.3531 2.113,-0.8823 2.843,-1.7353c0.769,-0.8995 1.049,-1.9504 1.049,-2.9835l-4,0zm-9.808,1.648c-5.47,0 -8.571,-0.4223 -10.26,-1.1117c-0.793,-0.3234 -1.127,-0.6484 -1.286,-0.8837c-0.156,-0.2305 -0.278,-0.5731 -0.278,-1.1886l-4,0c0,1.1606 0.238,2.3539 0.964,3.4285c0.723,1.0696 1.793,1.8186 3.088,2.3473c2.487,1.0146 6.298,1.4082 11.772,1.4082l0,-4zm-13.824,-5.184l-8.64,0l0,4l8.64,0l0,-4z"/>
  <path opacity="0.8" id="svg_5" fill="url(#paint3_linear_202_13362)" d="m351.507395,21.426543c0.274,-0.7413 1.323,-0.7413 1.597,0l2.86,7.7292c0.086,0.2331 0.27,0.4169 0.503,0.5031l7.729,2.8601c0.742,0.2743 0.742,1.3227 0,1.597l-7.729,2.8601c-0.233,0.0863 -0.417,0.27 -0.503,0.5031l-2.86,7.7292c-0.274,0.7413 -1.323,0.7413 -1.597,0l-2.86,-7.7292c-0.086,-0.2331 -0.27,-0.4168 -0.503,-0.5031l-7.729,-2.8601c-0.742,-0.2743 -0.742,-1.3227 0,-1.597l7.729,-2.8601c0.233,-0.0862 0.417,-0.27 0.503,-0.5031l2.86,-7.7292z"/>
  <path opacity="0.8" id="svg_6" fill="url(#paint4_linear_202_13362)" d="m438.739395,13.717343l2,0l0,-1.99998l-2,0l0,1.99998zm-24.576,0l0,-1.99998l-2,0l0,1.99998l2,0zm0,7.248l-2,0l0,2l2,0l0,-2zm15.936,0l2,0l0,-2l-2,0l0,2zm-23.04,9.504l2,0l0,-2l-2,0l0,2zm-8.64,0l0,-2l-2,0l0,2l2,0zm40.32,-18.75198l-24.576,0l0,3.99998l24.576,0l0,-3.99998zm-26.576,1.99998l0,7.248l4,0l0,-7.248l-4,0zm2,9.248l15.936,0l0,-4l-15.936,0l0,4zm13.936,-2l0,9.504l4,0l0,-9.504l-4,0zm0,9.504c0,2.2148 -0.328,4.1326 -1.468,5.5118c-1.08,1.3062 -3.27,2.5682 -8.052,2.5682l0,4c5.442,0 9.011,-1.45 11.135,-4.0197c2.064,-2.4968 2.385,-5.6191 2.385,-8.0603l-4,0zm-9.52,8.08c-4.788,0 -6.977,-1.2531 -8.055,-2.5526c-1.137,-1.3711 -1.465,-3.2852 -1.465,-5.5274l-4,0c0,2.4619 0.319,5.5877 2.386,8.0806c2.127,2.5646 5.698,3.9994 11.134,3.9994l0,-4zm-11.52,-10.08l-8.64,0l0,4l8.64,0l0,-4zm-10.64,2c0,6.2094 1.689,11.1931 5.587,14.5679c3.836,3.3219 9.446,4.7601 16.573,4.7601l0,-4c-6.698,0 -11.167,-1.3697 -13.955,-3.7839c-2.727,-2.3612 -4.205,-6.0414 -4.205,-11.5441l-4,0zm22.16,19.328c7.108,0 12.716,-1.4525 16.555,-4.7782c3.9,-3.3777 5.605,-8.358 5.605,-14.5498l-4,0c0,5.4723 -1.487,9.156 -4.224,11.5263c-2.796,2.4222 -7.268,3.8017 -13.936,3.8017l0,4zm22.16,-19.328l0,-16.752l-4,0l0,16.752l4,0zm25.8,19.328c7.599,0 13.435,-1.5889 17.386,-4.968c4.014,-3.4322 5.734,-8.4055 5.734,-14.36l-4,0c0,5.1815 -1.471,8.8722 -4.333,11.32c-2.925,2.5009 -7.649,4.008 -14.787,4.008l0,4zm23.12,-19.328c0,-5.9333 -1.722,-10.8844 -5.738,-14.2979c-3.952,-3.35852 -9.786,-4.93408 -17.382,-4.93408l0,3.99998c7.141,0 11.867,1.4965 14.791,3.982c2.86,2.4304 4.329,6.0954 4.329,11.25l4,0zm-23.12,-19.23198c-7.614,0 -13.451,1.56145 -17.399,4.91588c-4.014,3.4107 -5.721,8.3652 -5.721,14.3161l4,0c0,-5.185 1.462,-8.8466 4.311,-11.2678c2.916,-2.4776 7.64,-3.9642 14.809,-3.9642l0,-3.99998zm-23.12,19.23198c0,5.9721 1.705,10.9488 5.717,14.3782c3.948,3.3751 9.786,4.9498 17.403,4.9498l0,-4c-7.166,0 -11.888,-1.4972 -14.804,-3.9902c-2.852,-2.4386 -4.316,-6.1259 -4.316,-11.3378l-4,0zm23.12,8.08c-4.332,0 -6.873,-0.7805 -8.329,-1.9878c-1.364,-1.1301 -2.151,-2.957 -2.151,-6.0922l-4,0c0,3.7769 0.966,6.9899 3.598,9.1719c2.539,2.1046 6.239,2.9081 10.882,2.9081l0,-4zm-10.48,-8.08c0,-3.1143 0.777,-4.9111 2.127,-6.0212c1.449,-1.1914 3.989,-1.9628 8.353,-1.9628l0,-4c-4.659,0 -8.359,0.7887 -10.894,2.8732c-2.634,2.166 -3.586,5.3612 -3.586,9.1108l4,0zm10.48,-7.984c4.359,0 6.901,0.7812 8.351,1.9785c1.355,1.1181 2.129,2.9191 2.129,6.0055l4,0c0,-3.7296 -0.953,-6.9206 -3.583,-9.0905c-2.533,-2.0907 -6.231,-2.8935 -10.897,-2.8935l0,4zm10.48,7.984c0,3.1073 -0.784,4.9384 -2.153,6.0765c-1.458,1.2132 -4,2.0035 -8.327,2.0035l0,4c4.65,0 8.348,-0.8176 10.885,-2.9284c2.628,-2.1859 3.595,-5.3948 3.595,-9.1516l-4,0zm26.267,-16.752l2,0l0,-1.99998l-2,0l0,1.99998zm-8.64,0l0,-1.99998l-2,0l0,1.99998l2,0zm0,33.6l-2,0l0,2l2,0l0,-2zm8.64,0l0,2l2,0l0,-2l-2,0zm0,-35.59998l-8.64,0l0,3.99998l8.64,0l0,-3.99998zm-10.64,1.99998l0,33.6l4,0l0,-33.6l-4,0zm2,35.6l8.64,0l0,-4l-8.64,0l0,4zm10.64,-2l0,-33.6l-4,0l0,33.6l4,0zm40.324,-33.6l0,-1.99998l-2,0l0,1.99998l2,0zm0,25.248l-1.48,1.3451l3.48,3.8296l0,-5.1747l-2,0zm-22.944,-25.248l1.481,-1.34504l-0.596,-0.65494l-0.885,0l0,1.99998zm-11.712,0l0,-1.99998l-2,0l0,1.99998l2,0zm0,33.6l-2,0l0,2l2,0l0,-2zm8.64,0l0,2l2,0l0,-2l-2,0zm0,-25.2l1.481,-1.3449l-3.481,-3.8305l0,5.1754l2,0zm22.896,25.2l-1.48,1.345l0.595,0.655l0.885,0l0,-2zm11.76,0l0,2l2,0l0,-2l-2,0zm0,-33.6l2,0l0,-1.99998l-2,0l0,1.99998zm-10.64,0l0,25.248l4,0l0,-25.248l-4,0zm3.481,23.903l-22.944,-25.24804l-2.961,2.69014l22.944,25.248l2.961,-2.6901zm-24.425,-25.90298l-11.712,0l0,3.99998l11.712,0l0,-3.99998zm-13.712,1.99998l0,33.6l4,0l0,-33.6l-4,0zm2,35.6l8.64,0l0,-4l-8.64,0l0,4zm10.64,-2l0,-25.2l-4,0l0,25.2l4,0zm-3.48,-23.8551l22.896,25.2001l2.961,-2.6899l-22.896,-25.2l-2.961,2.6898zm24.376,25.8551l11.76,0l0,-4l-11.76,0l0,4zm13.76,-2l0,-33.6l-4,0l0,33.6l4,0zm-2,-35.59998l-8.64,0l0,3.99998l8.64,0l0,-3.99998zm75.999,1.99998l2,0l0,-1.99998l-2,0l0,1.99998zm-8.64,0l0,-1.99998l-2,0l0,1.99998l2,0zm-24.96,0l2,0l0,-1.99998l-2,0l0,1.99998zm-8.64,0l0,-1.99998l-2,0l0,1.99998l2,0zm44.24,16.752l0,-16.752l-4,0l0,16.752l4,0zm-2,-18.75198l-8.64,0l0,3.99998l8.64,0l0,-3.99998zm-10.64,1.99998l0,16.752l4,0l0,-16.752l-4,0zm0,16.752c0,2.211 -0.327,4.0916 -1.541,5.4576c-1.182,1.3312 -3.623,2.6224 -8.939,2.6224l0,4c5.869,0 9.668,-1.4207 11.929,-3.9655c2.231,-2.51 2.551,-5.6695 2.551,-8.1145l-4,0zm-10.48,8.08c-5.32,0 -7.76,-1.2819 -8.941,-2.6067c-1.21,-1.358 -1.539,-3.2348 -1.539,-5.4733l-4,0c0,2.4656 0.32,5.6288 2.553,8.1348c2.264,2.5391 6.064,3.9452 11.927,3.9452l0,-4zm-10.48,-8.08l0,-16.752l-4,0l0,16.752l4,0zm-2,-18.75198l-8.64,0l0,3.99998l8.64,0l0,-3.99998zm-10.64,1.99998l0,16.752l4,0l0,-16.752l-4,0zm0,16.752c0,6.2118 1.692,11.2133 5.734,14.5907c3.961,3.3099 9.807,4.7373 17.386,4.7373l0,-4c-7.204,0 -11.918,-1.3806 -14.821,-3.8067c-2.823,-2.3585 -4.299,-6.0211 -4.299,-11.5213l-4,0zm23.12,19.328c7.561,0 13.405,-1.4414 17.369,-4.7555c4.044,-3.3804 5.751,-8.3782 5.751,-14.5725l-4,0c0,5.4698 -1.484,9.1359 -4.316,11.5036c-2.912,2.4338 -7.628,3.8244 -14.804,3.8244l0,4zm28.084,-14.048l0,-2l-2,0l0,2l2,0zm21.456,-8.688l-0.117,1.9966l0.009,0.0005l0.108,-1.9971zm11.376,-2.352l-2,0l0,2l2,0l0,-2zm8.644,0l0,2l2,0l0,-2l-2,0zm-20.02,8.784l0.097,-1.9976l-0.005,-0.0003l-0.092,1.9979zm-12.816,2.256l2,0l0,-2l-2,0l0,2zm-10.64,0c0,2.7096 0.576,5.061 1.799,7.029c1.226,1.9716 3.008,3.4068 5.166,4.4362c4.215,2.0101 10.113,2.5828 17.019,2.5828l0,-4c-6.869,0 -11.963,-0.6032 -15.297,-2.1932c-1.615,-0.7705 -2.747,-1.7414 -3.491,-2.9377c-0.746,-1.2001 -1.196,-2.7787 -1.196,-4.9171l-4,0zm23.984,14.048c6.224,0 11.822,-0.4414 15.912,-2.196c2.09,-0.8966 3.88,-2.1745 5.14,-3.9925c1.26,-1.8274 1.88,-4.0406 1.88,-6.6115l-4,0c0,1.9172 -0.45,3.2979 -1.17,4.337c-0.73,1.0485 -1.84,1.9097 -3.42,2.591c-3.27,1.4015 -8.133,1.872 -14.342,1.872l0,4zm22.932,-12.8c0,-2.4586 -0.6,-4.5545 -1.91,-6.2525c-1.28,-1.6766 -3.1,-2.7676 -5.18,-3.5137c-4.04,-1.4527 -9.741,-1.8124 -16.261,-2.1668l-0.217,3.9941c6.727,0.3656 11.758,0.7258 15.128,1.9372c1.63,0.5858 2.69,1.3129 3.36,2.1832c0.65,0.849 1.08,2.0292 1.08,3.8185l4,0zm-23.342,-11.9325c-4.98,-0.2929 -7.666,-0.5531 -9.122,-0.9879c-0.694,-0.2072 -0.81,-0.3741 -0.787,-0.3466c0.058,0.0711 -0.017,0.0762 -0.017,-0.317l-4,0c0,0.9029 0.177,1.9399 0.92,2.8481c0.706,0.8645 1.706,1.3395 2.74,1.6483c2,0.5973 5.218,0.8651 10.031,1.1482l0.235,-3.9931zm-9.926,-1.6515c0,-0.1812 0.019,-0.2817 0.032,-0.3293c0.006,-0.0225 0.011,-0.0331 0.012,-0.0357c0.001,-0.0021 0.001,-0.0022 0.002,-0.0028c0,-0.0007 0.006,-0.008 0.021,-0.0215c0.015,-0.014 0.044,-0.0369 0.09,-0.0667c0.097,-0.0613 0.264,-0.1458 0.539,-0.2364c1.216,-0.4006 3.528,-0.6196 7.816,-0.6196l0,-4c-4.207,0 -7.151,0.189 -9.068,0.8205c-1.007,0.3317 -1.94,0.8499 -2.594,1.7183c-0.667,0.8868 -0.85,1.8813 -0.85,2.7732l4,0zm8.512,-1.312c4.515,0 7.369,0.242 9.063,0.8132c0.807,0.2722 1.166,0.5614 1.333,0.769c0.142,0.1764 0.276,0.4535 0.276,1.0258l4.004,0c0,-1.2756 -0.33,-2.4986 -1.16,-3.5326c-0.81,-1.003 -1.936,-1.6347 -3.175,-2.0525c-2.398,-0.8088 -5.88,-1.0229 -10.341,-1.0229l0,4zm12.672,4.608l8.644,0l0,-4l-8.644,0l0,4zm10.644,-2c0,-2.3954 -0.56,-4.5302 -1.71,-6.3578c-1.14,-1.8221 -2.79,-3.2193 -4.79,-4.265c-3.94,-2.05699 -9.423,-2.84918 -15.856,-2.84918l0,3.99998c6.239,0 10.933,0.7918 14.006,2.3948c1.5,0.7844 2.56,1.7361 3.25,2.8436c0.69,1.1019 1.1,2.477 1.1,4.2336l4,0zm-22.356,-13.47198c-6.337,0 -11.717,0.58059 -15.573,2.26768c-1.963,0.8584 -3.624,2.0432 -4.79,3.6703c-1.179,1.6449 -1.749,3.5994 -1.749,5.806l4,0c0,-1.4894 0.373,-2.6009 1,-3.4759c0.64,-0.893 1.648,-1.6822 3.142,-2.3358c3.056,-1.3369 7.731,-1.9323 13.97,-1.9323l0,-3.99998zm-22.112,11.74398c0,2.1396 0.413,4.0796 1.422,5.7577c1.014,1.6869 2.528,2.9387 4.435,3.8696c3.695,1.8038 9.192,2.5472 16.499,2.8826l0.184,-3.9958c-7.333,-0.3366 -12.06,-1.0811 -14.929,-2.4814c-1.374,-0.671 -2.228,-1.4502 -2.76,-2.3359c-0.538,-0.8943 -0.851,-2.0684 -0.851,-3.6968l-4,0zm22.351,12.5097c5.538,0.2683 8.469,0.5195 10.034,0.9732c0.744,0.2157 0.86,0.3944 0.838,0.3658c-0.046,-0.0585 0.041,-0.031 0.041,0.4553l4.004,0c0,-0.9056 -0.16,-1.9821 -0.9,-2.9301c-0.73,-0.9182 -1.77,-1.4145 -2.869,-1.7328c-2.119,-0.6143 -5.596,-0.8671 -10.954,-1.1267l-0.194,3.9953zm10.913,1.7943c0,0.2869 -0.062,0.3521 -0.089,0.384c-0.067,0.0785 -0.308,0.2963 -1.023,0.5253c-1.486,0.4758 -4.149,0.7387 -8.696,0.7387l0,4c4.525,0 7.766,-0.241 9.916,-0.9292c1.106,-0.3531 2.116,-0.8823 2.846,-1.7353c0.77,-0.8995 1.05,-1.9504 1.05,-2.9835l-4.004,0zm-9.808,1.648c-5.47,0 -8.571,-0.4223 -10.26,-1.1117c-0.793,-0.3234 -1.127,-0.6484 -1.286,-0.8837c-0.156,-0.2305 -0.278,-0.5731 -0.278,-1.1886l-4,0c0,1.1606 0.238,2.3539 0.964,3.4285c0.723,1.0696 1.793,1.8186 3.089,2.3473c2.486,1.0146 6.298,1.4082 11.771,1.4082l0,-4zm-13.824,-5.184l-8.64,0l0,4l8.64,0l0,-4z"/>
  <path opacity="0.8" id="svg_7" fill="url(#paint5_linear_202_13362)" d="m725.609395,21.426543c0.27,-0.7413 1.32,-0.7413 1.59,0l2.86,7.7292c0.09,0.2331 0.27,0.4169 0.51,0.5031l7.73,2.8601c0.74,0.2743 0.74,1.3227 0,1.597l-7.73,2.8601c-0.24,0.0863 -0.42,0.27 -0.51,0.5031l-2.86,7.7292c-0.27,0.7413 -1.32,0.7413 -1.59,0l-2.86,-7.7292c-0.09,-0.2331 -0.27,-0.4168 -0.51,-0.5031l-7.73,-2.8601c-0.74,-0.2743 -0.74,-1.3227 0,-1.597l7.73,-2.8601c0.24,-0.0862 0.42,-0.27 0.51,-0.5031l2.86,-7.7292z"/>
  <path opacity="0.8" id="svg_8" fill="url(#paint6_linear_202_13362)" d="m812.839395,13.717343l2,0l0,-1.99998l-2,0l0,1.99998zm-24.58,0l0,-1.99998l-2,0l0,1.99998l2,0zm0,7.248l-2,0l0,2l2,0l0,-2zm15.94,0l2,0l0,-2l-2,0l0,2zm-23.04,9.504l2,0l0,-2l-2,0l0,2zm-8.64,0l0,-2l-2,0l0,2l2,0zm40.32,-18.75198l-24.58,0l0,3.99998l24.58,0l0,-3.99998zm-26.58,1.99998l0,7.248l4,0l0,-7.248l-4,0zm2,9.248l15.94,0l0,-4l-15.94,0l0,4zm13.94,-2l0,9.504l4,0l0,-9.504l-4,0zm0,9.504c0,2.2148 -0.33,4.1326 -1.47,5.5118c-1.08,1.3062 -3.27,2.5682 -8.05,2.5682l0,4c5.44,0 9.01,-1.45 11.13,-4.0197c2.07,-2.4968 2.39,-5.6191 2.39,-8.0603l-4,0zm-9.52,8.08c-4.79,0 -6.98,-1.2531 -8.06,-2.5526c-1.13,-1.3711 -1.46,-3.2852 -1.46,-5.5274l-4,0c0,2.4619 0.32,5.5877 2.38,8.0806c2.13,2.5646 5.7,3.9994 11.14,3.9994l0,-4zm-11.52,-10.08l-8.64,0l0,4l8.64,0l0,-4zm-10.64,2c0,6.2094 1.69,11.1931 5.58,14.5679c3.84,3.3219 9.45,4.7601 16.58,4.7601l0,-4c-6.7,0 -11.17,-1.3697 -13.96,-3.7839c-2.72,-2.3612 -4.2,-6.0414 -4.2,-11.5441l-4,0zm22.16,19.328c7.11,0 12.71,-1.4525 16.55,-4.7782c3.9,-3.3777 5.61,-8.358 5.61,-14.5498l-4,0c0,5.4723 -1.49,9.156 -4.23,11.5263c-2.79,2.4222 -7.26,3.8017 -13.93,3.8017l0,4zm22.16,-19.328l0,-16.752l-4,0l0,16.752l4,0zm25.8,19.328c7.6,0 13.43,-1.5889 17.38,-4.968c4.02,-3.4322 5.74,-8.4055 5.74,-14.36l-4,0c0,5.1815 -1.47,8.8722 -4.34,11.32c-2.92,2.5009 -7.64,4.008 -14.78,4.008l0,4zm23.12,-19.328c0,-5.9333 -1.72,-10.8844 -5.74,-14.2979c-3.95,-3.35852 -9.79,-4.93408 -17.38,-4.93408l0,3.99998c7.14,0 11.86,1.4965 14.79,3.982c2.86,2.4304 4.33,6.0954 4.33,11.25l4,0zm-23.12,-19.23198c-7.62,0 -13.45,1.56145 -17.4,4.91588c-4.02,3.4107 -5.72,8.3652 -5.72,14.3161l4,0c0,-5.185 1.46,-8.8466 4.31,-11.2678c2.92,-2.4776 7.64,-3.9642 14.81,-3.9642l0,-3.99998zm-23.12,19.23198c0,5.9721 1.7,10.9488 5.71,14.3782c3.95,3.3751 9.79,4.9498 17.41,4.9498l0,-4c-7.17,0 -11.89,-1.4972 -14.81,-3.9902c-2.85,-2.4386 -4.31,-6.1259 -4.31,-11.3378l-4,0zm23.12,8.08c-4.33,0 -6.87,-0.7805 -8.33,-1.9878c-1.37,-1.1301 -2.15,-2.957 -2.15,-6.0922l-4,0c0,3.7769 0.96,6.9899 3.6,9.1719c2.54,2.1046 6.23,2.9081 10.88,2.9081l0,-4zm-10.48,-8.08c0,-3.1143 0.77,-4.9111 2.12,-6.0212c1.45,-1.1914 3.99,-1.9628 8.36,-1.9628l0,-4c-4.66,0 -8.36,0.7887 -10.9,2.8732c-2.63,2.166 -3.58,5.3612 -3.58,9.1108l4,0zm10.48,-7.984c4.36,0 6.9,0.7812 8.35,1.9785c1.35,1.1181 2.13,2.9191 2.13,6.0055l4,0c0,-3.7296 -0.96,-6.9206 -3.58,-9.0905c-2.54,-2.0907 -6.24,-2.8935 -10.9,-2.8935l0,4zm10.48,7.984c0,3.1073 -0.79,4.9384 -2.15,6.0765c-1.46,1.2132 -4.01,2.0035 -8.33,2.0035l0,4c4.65,0 8.35,-0.8176 10.88,-2.9284c2.63,-2.1859 3.6,-5.3948 3.6,-9.1516l-4,0zm26.26,-16.752l2,0l0,-1.99998l-2,0l0,1.99998zm-8.64,0l0,-1.99998l-2,0l0,1.99998l2,0zm0,33.6l-2,0l0,2l2,0l0,-2zm8.64,0l0,2l2,0l0,-2l-2,0zm0,-35.59998l-8.64,0l0,3.99998l8.64,0l0,-3.99998zm-10.64,1.99998l0,33.6l4,0l0,-33.6l-4,0zm2,35.6l8.64,0l0,-4l-8.64,0l0,4zm10.64,-2l0,-33.6l-4,0l0,33.6l4,0zm40.33,-33.6l0,-1.99998l-2,0l0,1.99998l2,0zm0,25.248l-1.48,1.3451l3.48,3.8296l0,-5.1747l-2,0zm-22.94,-25.248l1.48,-1.34504l-0.6,-0.65494l-0.88,0l0,1.99998zm-11.72,0l0,-1.99998l-2,0l0,1.99998l2,0zm0,33.6l-2,0l0,2l2,0l0,-2zm8.64,0l0,2l2,0l0,-2l-2,0zm0,-25.2l1.48,-1.3449l-3.48,-3.8305l0,5.1754l2,0zm22.9,25.2l-1.48,1.345l0.59,0.655l0.89,0l0,-2zm11.76,0l0,2l2,0l0,-2l-2,0zm0,-33.6l2,0l0,-1.99998l-2,0l0,1.99998zm-10.64,0l0,25.248l4,0l0,-25.248l-4,0zm3.48,23.903l-22.94,-25.24804l-2.97,2.69014l22.95,25.248l2.96,-2.6901zm-24.42,-25.90298l-11.72,0l0,3.99998l11.72,0l0,-3.99998zm-13.72,1.99998l0,33.6l4,0l0,-33.6l-4,0zm2,35.6l8.64,0l0,-4l-8.64,0l0,4zm10.64,-2l0,-25.2l-4,0l0,25.2l4,0zm-3.48,-23.8551l22.9,25.2001l2.96,-2.6899l-22.9,-25.2l-2.96,2.6898zm24.38,25.8551l11.76,0l0,-4l-11.76,0l0,4zm13.76,-2l0,-33.6l-4,0l0,33.6l4,0zm-2,-35.59998l-8.64,0l0,3.99998l8.64,0l0,-3.99998zm76,1.99998l2,0l0,-1.99998l-2,0l0,1.99998zm-8.64,0l0,-1.99998l-2,0l0,1.99998l2,0zm-24.96,0l2,0l0,-1.99998l-2,0l0,1.99998zm-8.64,0l0,-1.99998l-2,0l0,1.99998l2,0zm44.24,16.752l0,-16.752l-4,0l0,16.752l4,0zm-2,-18.75198l-8.64,0l0,3.99998l8.64,0l0,-3.99998zm-10.64,1.99998l0,16.752l4,0l0,-16.752l-4,0zm0,16.752c0,2.211 -0.33,4.0916 -1.54,5.4576c-1.19,1.3312 -3.63,2.6224 -8.94,2.6224l0,4c5.87,0 9.67,-1.4207 11.93,-3.9655c2.23,-2.51 2.55,-5.6695 2.55,-8.1145l-4,0zm-10.48,8.08c-5.32,0 -7.76,-1.2819 -8.94,-2.6067c-1.21,-1.358 -1.54,-3.2348 -1.54,-5.4733l-4,0c0,2.4656 0.32,5.6288 2.55,8.1348c2.26,2.5391 6.06,3.9452 11.93,3.9452l0,-4zm-10.48,-8.08l0,-16.752l-4,0l0,16.752l4,0zm-2,-18.75198l-8.64,0l0,3.99998l8.64,0l0,-3.99998zm-10.64,1.99998l0,16.752l4,0l0,-16.752l-4,0zm0,16.752c0,6.2118 1.69,11.2133 5.73,14.5907c3.96,3.3099 9.81,4.7373 17.39,4.7373l0,-4c-7.21,0 -11.92,-1.3806 -14.82,-3.8067c-2.83,-2.3585 -4.3,-6.0211 -4.3,-11.5213l-4,0zm23.12,19.328c7.56,0 13.4,-1.4414 17.37,-4.7555c4.04,-3.3804 5.75,-8.3782 5.75,-14.5725l-4,0c0,5.4698 -1.49,9.1359 -4.32,11.5036c-2.91,2.4338 -7.63,3.8244 -14.8,3.8244l0,4zm28.08,-14.048l0,-2l-2,0l0,2l2,0zm21.46,-8.688l-0.12,1.9966l0.01,0.0005l0.11,-1.9971zm11.37,-2.352l-2,0l0,2l2,0l0,-2zm8.64,0l0,2l2,0l0,-2l-2,0zm-20.01,8.784l0.09,-1.9976l0,-0.0003l-0.09,1.9979zm-12.82,2.256l2,0l0,-2l-2,0l0,2zm-10.64,0c0,2.7096 0.58,5.061 1.8,7.029c1.23,1.9716 3.01,3.4068 5.17,4.4362c4.21,2.0101 10.11,2.5828 17.02,2.5828l0,-4c-6.87,0 -11.97,-0.6032 -15.3,-2.1932c-1.62,-0.7705 -2.75,-1.7414 -3.49,-2.9377c-0.75,-1.2001 -1.2,-2.7787 -1.2,-4.9171l-4,0zm23.99,14.048c6.22,0 11.82,-0.4414 15.91,-2.196c2.09,-0.8966 3.88,-2.1745 5.14,-3.9925c1.26,-1.8274 1.87,-4.0406 1.87,-6.6115l-4,0c0,1.9172 -0.44,3.2979 -1.16,4.337c-0.73,1.0485 -1.84,1.9097 -3.43,2.591c-3.26,1.4015 -8.13,1.872 -14.33,1.872l0,4zm22.92,-12.8c0,-2.4586 -0.6,-4.5545 -1.9,-6.2525c-1.28,-1.6766 -3.1,-2.7676 -5.18,-3.5137c-4.04,-1.4527 -9.74,-1.8124 -16.26,-2.1668l-0.22,3.9941c6.73,0.3656 11.76,0.7258 15.13,1.9372c1.63,0.5858 2.69,1.3129 3.36,2.1832c0.65,0.849 1.07,2.0292 1.07,3.8185l4,0zm-23.33,-11.9325c-4.98,-0.2929 -7.67,-0.5531 -9.13,-0.9879c-0.69,-0.2072 -0.81,-0.3741 -0.78,-0.3466c0.05,0.0711 -0.02,0.0762 -0.02,-0.317l-4,0c0,0.9029 0.18,1.9399 0.92,2.8481c0.71,0.8645 1.71,1.3395 2.74,1.6483c2,0.5973 5.22,0.8651 10.03,1.1482l0.24,-3.9931zm-9.93,-1.6515c0,-0.1812 0.02,-0.2817 0.03,-0.3293c0.01,-0.0225 0.01,-0.0331 0.01,-0.0357c0,-0.0021 0.01,-0.0022 0.01,-0.0028c0,-0.0007 0,-0.008 0.02,-0.0215c0.01,-0.014 0.04,-0.0369 0.09,-0.0667c0.09,-0.0613 0.26,-0.1458 0.54,-0.2364c1.21,-0.4006 3.52,-0.6196 7.81,-0.6196l0,-4c-4.21,0 -7.15,0.189 -9.07,0.8205c-1,0.3317 -1.94,0.8499 -2.59,1.7183c-0.67,0.8868 -0.85,1.8813 -0.85,2.7732l4,0zm8.51,-1.312c4.52,0 7.37,0.242 9.06,0.8132c0.81,0.2722 1.17,0.5614 1.34,0.769c0.14,0.1764 0.27,0.4535 0.27,1.0258l4,0c0,-1.2756 -0.32,-2.4986 -1.16,-3.5326c-0.8,-1.003 -1.93,-1.6347 -3.17,-2.0525c-2.4,-0.8088 -5.88,-1.0229 -10.34,-1.0229l0,4zm12.67,4.608l8.64,0l0,-4l-8.64,0l0,4zm10.64,-2c0,-2.3954 -0.55,-4.5302 -1.7,-6.3578c-1.14,-1.8221 -2.79,-3.2193 -4.79,-4.265c-3.94,-2.05699 -9.43,-2.84918 -15.86,-2.84918l0,3.99998c6.24,0 10.93,0.7918 14,2.3948c1.51,0.7844 2.57,1.7361 3.26,2.8436c0.69,1.1019 1.09,2.477 1.09,4.2336l4,0zm-22.35,-13.47198c-6.34,0 -11.72,0.58059 -15.57,2.26768c-1.96,0.8584 -3.63,2.0432 -4.79,3.6703c-1.18,1.6449 -1.75,3.5994 -1.75,5.806l4,0c0,-1.4894 0.37,-2.6009 1,-3.4759c0.64,-0.893 1.65,-1.6822 3.14,-2.3358c3.06,-1.3369 7.73,-1.9323 13.97,-1.9323l0,-3.99998zm-22.11,11.74398c0,2.1396 0.41,4.0796 1.42,5.7577c1.02,1.6869 2.53,2.9387 4.44,3.8696c3.69,1.8038 9.19,2.5472 16.5,2.8826l0.18,-3.9958c-7.33,-0.3366 -12.06,-1.0811 -14.93,-2.4814c-1.37,-0.671 -2.23,-1.4502 -2.76,-2.3359c-0.54,-0.8943 -0.85,-2.0684 -0.85,-3.6968l-4,0zm22.35,12.5097c5.54,0.2683 8.47,0.5195 10.03,0.9732c0.75,0.2157 0.86,0.3944 0.84,0.3658c-0.04,-0.0585 0.04,-0.031 0.04,0.4553l4,0c0,-0.9056 -0.15,-1.9821 -0.9,-2.9301c-0.72,-0.9182 -1.76,-1.4145 -2.86,-1.7328c-2.12,-0.6143 -5.6,-0.8671 -10.96,-1.1267l-0.19,3.9953zm10.91,1.7943c0,0.2869 -0.06,0.3521 -0.09,0.384c-0.06,0.0785 -0.3,0.2963 -1.02,0.5253c-1.48,0.4758 -4.15,0.7387 -8.69,0.7387l0,4c4.52,0 7.76,-0.241 9.91,-0.9292c1.1,-0.3531 2.12,-0.8823 2.84,-1.7353c0.77,-0.8995 1.05,-1.9504 1.05,-2.9835l-4,0zm-9.8,1.648c-5.47,0 -8.57,-0.4223 -10.26,-1.1117c-0.8,-0.3234 -1.13,-0.6484 -1.29,-0.8837c-0.16,-0.2305 -0.28,-0.5731 -0.28,-1.1886l-4,0c0,1.1606 0.24,2.3539 0.97,3.4285c0.72,1.0696 1.79,1.8186 3.08,2.3473c2.49,1.0146 6.3,1.4082 11.78,1.4082l0,-4zm-13.83,-5.184l-8.64,0l0,4l8.64,0l0,-4z"/>
  <path opacity="0.8" id="svg_9" fill="url(#paint7_linear_202_13362)" d="m1099.699395,21.426543c0.28,-0.7413 1.33,-0.7413 1.6,0l2.86,7.7292c0.09,0.2331 0.27,0.4169 0.5,0.5031l7.73,2.8601c0.74,0.2743 0.74,1.3227 0,1.597l-7.73,2.8601c-0.23,0.0863 -0.41,0.27 -0.5,0.5031l-2.86,7.7292c-0.27,0.7413 -1.32,0.7413 -1.6,0l-2.86,-7.7292c-0.08,-0.2331 -0.27,-0.4168 -0.5,-0.5031l-7.73,-2.8601c-0.74,-0.2743 -0.74,-1.3227 0,-1.597l7.73,-2.8601c0.23,-0.0862 0.42,-0.27 0.5,-0.5031l2.86,-7.7292z"/>
  <path opacity="0.8" id="svg_10" fill="url(#paint8_linear_202_13362)" d="m1186.939395,13.717343l2,0l0,-1.99998l-2,0l0,1.99998zm-24.58,0l0,-1.99998l-2,0l0,1.99998l2,0zm0,7.248l-2,0l0,2l2,0l0,-2zm15.94,0l2,0l0,-2l-2,0l0,2zm-23.04,9.504l2,0l0,-2l-2,0l0,2zm-8.64,0l0,-2l-2,0l0,2l2,0zm40.32,-18.75198l-24.58,0l0,3.99998l24.58,0l0,-3.99998zm-26.58,1.99998l0,7.248l4,0l0,-7.248l-4,0zm2,9.248l15.94,0l0,-4l-15.94,0l0,4zm13.94,-2l0,9.504l4,0l0,-9.504l-4,0zm0,9.504c0,2.2148 -0.33,4.1326 -1.47,5.5118c-1.08,1.3062 -3.27,2.5682 -8.05,2.5682l0,4c5.44,0 9.01,-1.45 11.13,-4.0197c2.07,-2.4968 2.39,-5.6191 2.39,-8.0603l-4,0zm-9.52,8.08c-4.79,0 -6.98,-1.2531 -8.06,-2.5526c-1.14,-1.3711 -1.46,-3.2852 -1.46,-5.5274l-4,0c0,2.4619 0.31,5.5877 2.38,8.0806c2.13,2.5646 5.7,3.9994 11.14,3.9994l0,-4zm-11.52,-10.08l-8.64,0l0,4l8.64,0l0,-4zm-10.64,2c0,6.2094 1.69,11.1931 5.58,14.5679c3.84,3.3219 9.45,4.7601 16.58,4.7601l0,-4c-6.7,0 -11.17,-1.3697 -13.96,-3.7839c-2.73,-2.3612 -4.2,-6.0414 -4.2,-11.5441l-4,0zm22.16,19.328c7.1,0 12.71,-1.4525 16.55,-4.7782c3.9,-3.3777 5.61,-8.358 5.61,-14.5498l-4,0c0,5.4723 -1.49,9.156 -4.23,11.5263c-2.79,2.4222 -7.27,3.8017 -13.93,3.8017l0,4zm22.16,-19.328l0,-16.752l-4,0l0,16.752l4,0zm25.8,19.328c7.59,0 13.43,-1.5889 17.38,-4.968c4.02,-3.4322 5.74,-8.4055 5.74,-14.36l-4,0c0,5.1815 -1.48,8.8722 -4.34,11.32c-2.92,2.5009 -7.65,4.008 -14.78,4.008l0,4zm23.12,-19.328c0,-5.9333 -1.73,-10.8844 -5.74,-14.2979c-3.95,-3.35852 -9.79,-4.93408 -17.38,-4.93408l0,3.99998c7.14,0 11.86,1.4965 14.79,3.982c2.86,2.4304 4.33,6.0954 4.33,11.25l4,0zm-23.12,-19.23198c-7.62,0 -13.45,1.56145 -17.4,4.91588c-4.02,3.4107 -5.72,8.3652 -5.72,14.3161l4,0c0,-5.185 1.46,-8.8466 4.31,-11.2678c2.91,-2.4776 7.64,-3.9642 14.81,-3.9642l0,-3.99998zm-23.12,19.23198c0,5.9721 1.7,10.9488 5.71,14.3782c3.95,3.3751 9.79,4.9498 17.41,4.9498l0,-4c-7.17,0 -11.89,-1.4972 -14.81,-3.9902c-2.85,-2.4386 -4.31,-6.1259 -4.31,-11.3378l-4,0zm23.12,8.08c-4.34,0 -6.88,-0.7805 -8.33,-1.9878c-1.37,-1.1301 -2.15,-2.957 -2.15,-6.0922l-4,0c0,3.7769 0.96,6.9899 3.59,9.1719c2.54,2.1046 6.24,2.9081 10.89,2.9081l0,-4zm-10.48,-8.08c0,-3.1143 0.77,-4.9111 2.12,-6.0212c1.45,-1.1914 3.99,-1.9628 8.36,-1.9628l0,-4c-4.66,0 -8.36,0.7887 -10.9,2.8732c-2.63,2.166 -3.58,5.3612 -3.58,9.1108l4,0zm10.48,-7.984c4.35,0 6.9,0.7812 8.35,1.9785c1.35,1.1181 2.13,2.9191 2.13,6.0055l4,0c0,-3.7296 -0.96,-6.9206 -3.59,-9.0905c-2.53,-2.0907 -6.23,-2.8935 -10.89,-2.8935l0,4zm10.48,7.984c0,3.1073 -0.79,4.9384 -2.16,6.0765c-1.46,1.2132 -4,2.0035 -8.32,2.0035l0,4c4.65,0 8.34,-0.8176 10.88,-2.9284c2.63,-2.1859 3.6,-5.3948 3.6,-9.1516l-4,0zm26.26,-16.752l2,0l0,-1.99998l-2,0l0,1.99998zm-8.64,0l0,-1.99998l-2,0l0,1.99998l2,0zm0,33.6l-2,0l0,2l2,0l0,-2zm8.64,0l0,2l2,0l0,-2l-2,0zm0,-35.59998l-8.64,0l0,3.99998l8.64,0l0,-3.99998zm-10.64,1.99998l0,33.6l4,0l0,-33.6l-4,0zm2,35.6l8.64,0l0,-4l-8.64,0l0,4zm10.64,-2l0,-33.6l-4,0l0,33.6l4,0zm40.33,-33.6l0,-1.99998l-2,0l0,1.99998l2,0zm0,25.248l-1.48,1.3451l3.48,3.8296l0,-5.1747l-2,0zm-22.95,-25.248l1.48,-1.34504l-0.59,-0.65494l-0.89,0l0,1.99998zm-11.71,0l0,-1.99998l-2,0l0,1.99998l2,0zm0,33.6l-2,0l0,2l2,0l0,-2zm8.64,0l0,2l2,0l0,-2l-2,0zm0,-25.2l1.48,-1.3449l-3.48,-3.8305l0,5.1754l2,0zm22.9,25.2l-1.48,1.345l0.59,0.655l0.89,0l0,-2zm11.76,0l0,2l2,0l0,-2l-2,0zm0,-33.6l2,0l0,-1.99998l-2,0l0,1.99998zm-10.64,0l0,25.248l4,0l0,-25.248l-4,0zm3.48,23.903l-22.95,-25.24804l-2.96,2.69014l22.95,25.248l2.96,-2.6901zm-24.43,-25.90298l-11.71,0l0,3.99998l11.71,0l0,-3.99998zm-13.71,1.99998l0,33.6l4,0l0,-33.6l-4,0zm2,35.6l8.64,0l0,-4l-8.64,0l0,4zm10.64,-2l0,-25.2l-4,0l0,25.2l4,0zm-3.48,-23.8551l22.9,25.2001l2.96,-2.6899l-22.9,-25.2l-2.96,2.6898zm24.38,25.8551l11.76,0l0,-4l-11.76,0l0,4zm13.76,-2l0,-33.6l-4,0l0,33.6l4,0zm-2,-35.59998l-8.64,0l0,3.99998l8.64,0l0,-3.99998zm76,1.99998l2,0l0,-1.99998l-2,0l0,1.99998zm-8.64,0l0,-1.99998l-2,0l0,1.99998l2,0zm-24.96,0l2,0l0,-1.99998l-2,0l0,1.99998zm-8.64,0l0,-1.99998l-2,0l0,1.99998l2,0zm44.24,16.752l0,-16.752l-4,0l0,16.752l4,0zm-2,-18.75198l-8.64,0l0,3.99998l8.64,0l0,-3.99998zm-10.64,1.99998l0,16.752l4,0l0,-16.752l-4,0zm0,16.752c0,2.211 -0.33,4.0916 -1.54,5.4576c-1.19,1.3312 -3.63,2.6224 -8.94,2.6224l0,4c5.86,0 9.66,-1.4207 11.93,-3.9655c2.23,-2.51 2.55,-5.6695 2.55,-8.1145l-4,0zm-10.48,8.08c-5.32,0 -7.76,-1.2819 -8.94,-2.6067c-1.22,-1.358 -1.54,-3.2348 -1.54,-5.4733l-4,0c0,2.4656 0.32,5.6288 2.55,8.1348c2.26,2.5391 6.06,3.9452 11.93,3.9452l0,-4zm-10.48,-8.08l0,-16.752l-4,0l0,16.752l4,0zm-2,-18.75198l-8.64,0l0,3.99998l8.64,0l0,-3.99998zm-10.64,1.99998l0,16.752l4,0l0,-16.752l-4,0zm0,16.752c0,6.2118 1.69,11.2133 5.73,14.5907c3.96,3.3099 9.81,4.7373 17.39,4.7373l0,-4c-7.21,0 -11.92,-1.3806 -14.83,-3.8067c-2.82,-2.3585 -4.29,-6.0211 -4.29,-11.5213l-4,0zm23.12,19.328c7.56,0 13.4,-1.4414 17.36,-4.7555c4.05,-3.3804 5.76,-8.3782 5.76,-14.5725l-4,0c0,5.4698 -1.49,9.1359 -4.32,11.5036c-2.91,2.4338 -7.63,3.8244 -14.8,3.8244l0,4zm28.08,-14.048l0,-2l-2,0l0,2l2,0zm21.46,-8.688l-0.12,1.9966l0.01,0.0005l0.11,-1.9971zm11.37,-2.352l-2,0l0,2l2,0l0,-2zm8.64,0l0,2l2,0l0,-2l-2,0zm-20.01,8.784l0.09,-1.9976l0,-0.0003l-0.09,1.9979zm-12.82,2.256l2,0l0,-2l-2,0l0,2zm-10.64,0c0,2.7096 0.58,5.061 1.8,7.029c1.22,1.9716 3.01,3.4068 5.16,4.4362c4.22,2.0101 10.12,2.5828 17.02,2.5828l0,-4c-6.87,0 -11.96,-0.6032 -15.29,-2.1932c-1.62,-0.7705 -2.75,-1.7414 -3.49,-2.9377c-0.75,-1.2001 -1.2,-2.7787 -1.2,-4.9171l-4,0zm23.98,14.048c6.23,0 11.83,-0.4414 15.92,-2.196c2.09,-0.8966 3.88,-2.1745 5.14,-3.9925c1.26,-1.8274 1.87,-4.0406 1.87,-6.6115l-4,0c0,1.9172 -0.45,3.2979 -1.16,4.337c-0.73,1.0485 -1.84,1.9097 -3.43,2.591c-3.27,1.4015 -8.13,1.872 -14.34,1.872l0,4zm22.93,-12.8c0,-2.4586 -0.6,-4.5545 -1.9,-6.2525c-1.29,-1.6766 -3.1,-2.7676 -5.18,-3.5137c-4.05,-1.4527 -9.74,-1.8124 -16.27,-2.1668l-0.21,3.9941c6.72,0.3656 11.75,0.7258 15.13,1.9372c1.63,0.5858 2.69,1.3129 3.36,2.1832c0.65,0.849 1.07,2.0292 1.07,3.8185l4,0zm-23.34,-11.9325c-4.98,-0.2929 -7.66,-0.5531 -9.12,-0.9879c-0.69,-0.2072 -0.81,-0.3741 -0.79,-0.3466c0.06,0.0711 -0.01,0.0762 -0.01,-0.317l-4,0c0,0.9029 0.18,1.9399 0.92,2.8481c0.7,0.8645 1.7,1.3395 2.74,1.6483c2,0.5973 5.22,0.8651 10.03,1.1482l0.23,-3.9931zm-9.92,-1.6515c0,-0.1812 0.02,-0.2817 0.03,-0.3293c0.01,-0.0225 0.01,-0.0331 0.01,-0.0357c0,-0.0021 0,-0.0022 0,-0.0028c0,-0.0007 0.01,-0.008 0.02,-0.0215c0.02,-0.014 0.05,-0.0369 0.1,-0.0667c0.09,-0.0613 0.26,-0.1458 0.53,-0.2364c1.22,-0.4006 3.53,-0.6196 7.82,-0.6196l0,-4c-4.21,0 -7.15,0.189 -9.07,0.8205c-1,0.3317 -1.94,0.8499 -2.59,1.7183c-0.67,0.8868 -0.85,1.8813 -0.85,2.7732l4,0zm8.51,-1.312c4.51,0 7.37,0.242 9.06,0.8132c0.81,0.2722 1.17,0.5614 1.34,0.769c0.14,0.1764 0.27,0.4535 0.27,1.0258l4,0c0,-1.2756 -0.33,-2.4986 -1.16,-3.5326c-0.8,-1.003 -1.93,-1.6347 -3.17,-2.0525c-2.4,-0.8088 -5.88,-1.0229 -10.34,-1.0229l0,4zm12.67,4.608l8.64,0l0,-4l-8.64,0l0,4zm10.64,-2c0,-2.3954 -0.56,-4.5302 -1.7,-6.3578c-1.14,-1.8221 -2.79,-3.2193 -4.8,-4.265c-3.93,-2.05699 -9.42,-2.84918 -15.85,-2.84918l0,3.99998c6.24,0 10.93,0.7918 14,2.3948c1.5,0.7844 2.57,1.7361 3.26,2.8436c0.69,1.1019 1.09,2.477 1.09,4.2336l4,0zm-22.35,-13.47198c-6.34,0 -11.72,0.58059 -15.57,2.26768c-1.97,0.8584 -3.63,2.0432 -4.79,3.6703c-1.18,1.6449 -1.75,3.5994 -1.75,5.806l4,0c0,-1.4894 0.37,-2.6009 1,-3.4759c0.64,-0.893 1.65,-1.6822 3.14,-2.3358c3.06,-1.3369 7.73,-1.9323 13.97,-1.9323l0,-3.99998zm-22.11,11.74398c0,2.1396 0.41,4.0796 1.42,5.7577c1.01,1.6869 2.53,2.9387 4.43,3.8696c3.7,1.8038 9.2,2.5472 16.5,2.8826l0.19,-3.9958c-7.34,-0.3366 -12.06,-1.0811 -14.93,-2.4814c-1.38,-0.671 -2.23,-1.4502 -2.76,-2.3359c-0.54,-0.8943 -0.85,-2.0684 -0.85,-3.6968l-4,0zm22.35,12.5097c5.54,0.2683 8.47,0.5195 10.03,0.9732c0.75,0.2157 0.86,0.3944 0.84,0.3658c-0.05,-0.0585 0.04,-0.031 0.04,0.4553l4,0c0,-0.9056 -0.15,-1.9821 -0.9,-2.9301c-0.72,-0.9182 -1.77,-1.4145 -2.86,-1.7328c-2.12,-0.6143 -5.6,-0.8671 -10.96,-1.1267l-0.19,3.9953zm10.91,1.7943c0,0.2869 -0.06,0.3521 -0.09,0.384c-0.06,0.0785 -0.3,0.2963 -1.02,0.5253c-1.49,0.4758 -4.15,0.7387 -8.7,0.7387l0,4c4.53,0 7.77,-0.241 9.92,-0.9292c1.1,-0.3531 2.11,-0.8823 2.84,-1.7353c0.77,-0.8995 1.05,-1.9504 1.05,-2.9835l-4,0zm-9.81,1.648c-5.47,0 -8.57,-0.4223 -10.26,-1.1117c-0.79,-0.3234 -1.12,-0.6484 -1.28,-0.8837c-0.16,-0.2305 -0.28,-0.5731 -0.28,-1.1886l-4,0c0,1.1606 0.24,2.3539 0.96,3.4285c0.73,1.0696 1.8,1.8186 3.09,2.3473c2.49,1.0146 6.3,1.4082 11.77,1.4082l0,-4zm-13.82,-5.184l-8.64,0l0,4l8.64,0l0,-4z"/>
  <path opacity="0.8" id="svg_11" fill="url(#paint9_linear_202_13362)" d="m1473.799395,21.426543c0.28,-0.7413 1.32,-0.7413 1.6,0l2.86,7.7292c0.09,0.2331 0.27,0.4169 0.5,0.5031l7.73,2.8601c0.74,0.2743 0.74,1.3227 0,1.597l-7.73,2.8601c-0.23,0.0863 -0.41,0.27 -0.5,0.5031l-2.86,7.7292c-0.28,0.7413 -1.32,0.7413 -1.6,0l-2.86,-7.7292c-0.08,-0.2331 -0.27,-0.4168 -0.5,-0.5031l-7.73,-2.8601c-0.74,-0.2743 -0.74,-1.3227 0,-1.597l7.73,-2.8601c0.23,-0.0862 0.42,-0.27 0.5,-0.5031l2.86,-7.7292z"/>
  <path opacity="0.8" id="svg_12" fill="url(#paint8_linear_202_13362)" d="m1554.412819,13.71734l2,0l0,-1.99998l-2,0l0,1.99998zm-24.58,0l0,-1.99998l-2,0l0,1.99998l2,0zm0,7.248l-2,0l0,2l2,0l0,-2zm15.94,0l2,0l0,-2l-2,0l0,2zm-23.04,9.504l2,0l0,-2l-2,0l0,2zm-8.64,0l0,-2l-2,0l0,2l2,0zm40.32,-18.75198l-24.58,0l0,3.99998l24.58,0l0,-3.99998zm-26.58,1.99998l0,7.248l4,0l0,-7.248l-4,0zm2,9.248l15.94,0l0,-4l-15.94,0l0,4zm13.94,-2l0,9.504l4,0l0,-9.504l-4,0zm0,9.504c0,2.2148 -0.33,4.1326 -1.47,5.5118c-1.08,1.3062 -3.27,2.5682 -8.05,2.5682l0,4c5.44,0 9.01,-1.45 11.13,-4.0197c2.07,-2.4968 2.39,-5.6191 2.39,-8.0603l-4,0zm-9.52,8.08c-4.79,0 -6.98,-1.2531 -8.06,-2.5526c-1.14,-1.3711 -1.46,-3.2852 -1.46,-5.5274l-4,0c0,2.4619 0.31,5.5877 2.38,8.0806c2.13,2.5646 5.7,3.9994 11.14,3.9994l0,-4zm-11.52,-10.08l-8.64,0l0,4l8.64,0l0,-4zm-10.64,2c0,6.2094 1.69,11.1931 5.58,14.5679c3.84,3.3219 9.45,4.7601 16.58,4.7601l0,-4c-6.7,0 -11.17,-1.3697 -13.96,-3.7839c-2.73,-2.3612 -4.2,-6.0414 -4.2,-11.5441l-4,0zm22.16,19.328c7.1,0 12.71,-1.4525 16.55,-4.7782c3.9,-3.3777 5.61,-8.358 5.61,-14.5498l-4,0c0,5.4723 -1.49,9.156 -4.23,11.5263c-2.79,2.4222 -7.27,3.8017 -13.93,3.8017l0,4zm22.16,-19.328l0,-16.752l-4,0l0,16.752l4,0zm25.8,19.328c7.59,0 13.43,-1.5889 17.38,-4.968c4.02,-3.4322 5.74,-8.4055 5.74,-14.36l-4,0c0,5.1815 -1.48,8.8722 -4.34,11.32c-2.92,2.5009 -7.65,4.008 -14.78,4.008l0,4zm23.12,-19.328c0,-5.9333 -1.73,-10.8844 -5.74,-14.2979c-3.95,-3.35852 -9.79,-4.93408 -17.38,-4.93408l0,3.99998c7.14,0 11.86,1.4965 14.79,3.982c2.86,2.4304 4.33,6.0954 4.33,11.25l4,0zm-23.12,-19.23198c-7.62,0 -13.45,1.56145 -17.4,4.91588c-4.02,3.4107 -5.72,8.3652 -5.72,14.3161l4,0c0,-5.185 1.46,-8.8466 4.31,-11.2678c2.91,-2.4776 7.64,-3.9642 14.81,-3.9642l0,-3.99998zm-23.12,19.23198c0,5.9721 1.7,10.9488 5.71,14.3782c3.95,3.3751 9.79,4.9498 17.41,4.9498l0,-4c-7.17,0 -11.89,-1.4972 -14.81,-3.9902c-2.85,-2.4386 -4.31,-6.1259 -4.31,-11.3378l-4,0zm23.12,8.08c-4.34,0 -6.88,-0.7805 -8.33,-1.9878c-1.37,-1.1301 -2.15,-2.957 -2.15,-6.0922l-4,0c0,3.7769 0.96,6.9899 3.59,9.1719c2.54,2.1046 6.24,2.9081 10.89,2.9081l0,-4zm-10.48,-8.08c0,-3.1143 0.77,-4.9111 2.12,-6.0212c1.45,-1.1914 3.99,-1.9628 8.36,-1.9628l0,-4c-4.66,0 -8.36,0.7887 -10.9,2.8732c-2.63,2.166 -3.58,5.3612 -3.58,9.1108l4,0zm10.48,-7.984c4.35,0 6.9,0.7812 8.35,1.9785c1.35,1.1181 2.13,2.9191 2.13,6.0055l4,0c0,-3.7296 -0.96,-6.9206 -3.59,-9.0905c-2.53,-2.0907 -6.23,-2.8935 -10.89,-2.8935l0,4zm10.48,7.984c0,3.1073 -0.79,4.9384 -2.16,6.0765c-1.46,1.2132 -4,2.0035 -8.32,2.0035l0,4c4.65,0 8.34,-0.8176 10.88,-2.9284c2.63,-2.1859 3.6,-5.3948 3.6,-9.1516l-4,0zm26.26,-16.752l2,0l0,-1.99998l-2,0l0,1.99998zm-8.64,0l0,-1.99998l-2,0l0,1.99998l2,0zm0,33.6l-2,0l0,2l2,0l0,-2zm8.64,0l0,2l2,0l0,-2l-2,0zm0,-35.59998l-8.64,0l0,3.99998l8.64,0l0,-3.99998zm-10.64,1.99998l0,33.6l4,0l0,-33.6l-4,0zm2,35.6l8.64,0l0,-4l-8.64,0l0,4zm10.64,-2l0,-33.6l-4,0l0,33.6l4,0zm40.33,-33.6l0,-1.99998l-2,0l0,1.99998l2,0zm0,25.248l-1.48,1.3451l3.48,3.8296l0,-5.1747l-2,0zm-22.95,-25.248l1.48,-1.34504l-0.59,-0.65494l-0.89,0l0,1.99998zm-11.71,0l0,-1.99998l-2,0l0,1.99998l2,0zm0,33.6l-2,0l0,2l2,0l0,-2zm8.64,0l0,2l2,0l0,-2l-2,0zm0,-25.2l1.48,-1.3449l-3.48,-3.8305l0,5.1754l2,0zm22.9,25.2l-1.48,1.345l0.59,0.655l0.89,0l0,-2zm11.76,0l0,2l2,0l0,-2l-2,0zm0,-33.6l2,0l0,-1.99998l-2,0l0,1.99998zm-10.64,0l0,25.248l4,0l0,-25.248l-4,0zm3.48,23.903l-22.95,-25.24804l-2.96,2.69014l22.95,25.248l2.96,-2.6901zm-24.43,-25.90298l-11.71,0l0,3.99998l11.71,0l0,-3.99998zm-13.71,1.99998l0,33.6l4,0l0,-33.6l-4,0zm2,35.6l8.64,0l0,-4l-8.64,0l0,4zm10.64,-2l0,-25.2l-4,0l0,25.2l4,0zm-3.48,-23.8551l22.9,25.2001l2.96,-2.6899l-22.9,-25.2l-2.96,2.6898zm24.38,25.8551l11.76,0l0,-4l-11.76,0l0,4zm13.76,-2l0,-33.6l-4,0l0,33.6l4,0zm-2,-35.59998l-8.64,0l0,3.99998l8.64,0l0,-3.99998zm76,1.99998l2,0l0,-1.99998l-2,0l0,1.99998zm-8.64,0l0,-1.99998l-2,0l0,1.99998l2,0zm-24.96,0l2,0l0,-1.99998l-2,0l0,1.99998zm-8.64,0l0,-1.99998l-2,0l0,1.99998l2,0zm44.24,16.752l0,-16.752l-4,0l0,16.752l4,0zm-2,-18.75198l-8.64,0l0,3.99998l8.64,0l0,-3.99998zm-10.64,1.99998l0,16.752l4,0l0,-16.752l-4,0zm0,16.752c0,2.211 -0.33,4.0916 -1.54,5.4576c-1.19,1.3312 -3.63,2.6224 -8.94,2.6224l0,4c5.86,0 9.66,-1.4207 11.93,-3.9655c2.23,-2.51 2.55,-5.6695 2.55,-8.1145l-4,0zm-10.48,8.08c-5.32,0 -7.76,-1.2819 -8.94,-2.6067c-1.22,-1.358 -1.54,-3.2348 -1.54,-5.4733l-4,0c0,2.4656 0.32,5.6288 2.55,8.1348c2.26,2.5391 6.06,3.9452 11.93,3.9452l0,-4zm-10.48,-8.08l0,-16.752l-4,0l0,16.752l4,0zm-2,-18.75198l-8.64,0l0,3.99998l8.64,0l0,-3.99998zm-10.64,1.99998l0,16.752l4,0l0,-16.752l-4,0zm0,16.752c0,6.2118 1.69,11.2133 5.73,14.5907c3.96,3.3099 9.81,4.7373 17.39,4.7373l0,-4c-7.21,0 -11.92,-1.3806 -14.83,-3.8067c-2.82,-2.3585 -4.29,-6.0211 -4.29,-11.5213l-4,0zm23.12,19.328c7.56,0 13.4,-1.4414 17.36,-4.7555c4.05,-3.3804 5.76,-8.3782 5.76,-14.5725l-4,0c0,5.4698 -1.49,9.1359 -4.32,11.5036c-2.91,2.4338 -7.63,3.8244 -14.8,3.8244l0,4zm28.08,-14.048l0,-2l-2,0l0,2l2,0zm21.46,-8.688l-0.12,1.9966l0.01,0.0005l0.11,-1.9971zm11.37,-2.352l-2,0l0,2l2,0l0,-2zm8.64,0l0,2l2,0l0,-2l-2,0zm-20.01,8.784l0.09,-1.9976l0,-0.0003l-0.09,1.9979zm-12.82,2.256l2,0l0,-2l-2,0l0,2zm-10.64,0c0,2.7096 0.58,5.061 1.8,7.029c1.22,1.9716 3.01,3.4068 5.16,4.4362c4.22,2.0101 10.12,2.5828 17.02,2.5828l0,-4c-6.87,0 -11.96,-0.6032 -15.29,-2.1932c-1.62,-0.7705 -2.75,-1.7414 -3.49,-2.9377c-0.75,-1.2001 -1.2,-2.7787 -1.2,-4.9171l-4,0zm23.98,14.048c6.23,0 11.83,-0.4414 15.92,-2.196c2.09,-0.8966 3.88,-2.1745 5.14,-3.9925c1.26,-1.8274 1.87,-4.0406 1.87,-6.6115l-4,0c0,1.9172 -0.45,3.2979 -1.16,4.337c-0.73,1.0485 -1.84,1.9097 -3.43,2.591c-3.27,1.4015 -8.13,1.872 -14.34,1.872l0,4zm22.93,-12.8c0,-2.4586 -0.6,-4.5545 -1.9,-6.2525c-1.29,-1.6766 -3.1,-2.7676 -5.18,-3.5137c-4.05,-1.4527 -9.74,-1.8124 -16.27,-2.1668l-0.21,3.9941c6.72,0.3656 11.75,0.7258 15.13,1.9372c1.63,0.5858 2.69,1.3129 3.36,2.1832c0.65,0.849 1.07,2.0292 1.07,3.8185l4,0zm-23.34,-11.9325c-4.98,-0.2929 -7.66,-0.5531 -9.12,-0.9879c-0.69,-0.2072 -0.81,-0.3741 -0.79,-0.3466c0.06,0.0711 -0.01,0.0762 -0.01,-0.317l-4,0c0,0.9029 0.18,1.9399 0.92,2.8481c0.7,0.8645 1.7,1.3395 2.74,1.6483c2,0.5973 5.22,0.8651 10.03,1.1482l0.23,-3.9931zm-9.92,-1.6515c0,-0.1812 0.02,-0.2817 0.03,-0.3293c0.01,-0.0225 0.01,-0.0331 0.01,-0.0357c0,-0.0021 0,-0.0022 0,-0.0028c0,-0.0007 0.01,-0.008 0.02,-0.0215c0.02,-0.014 0.05,-0.0369 0.1,-0.0667c0.09,-0.0613 0.26,-0.1458 0.53,-0.2364c1.22,-0.4006 3.53,-0.6196 7.82,-0.6196l0,-4c-4.21,0 -7.15,0.189 -9.07,0.8205c-1,0.3317 -1.94,0.8499 -2.59,1.7183c-0.67,0.8868 -0.85,1.8813 -0.85,2.7732l4,0zm8.51,-1.312c4.51,0 7.37,0.242 9.06,0.8132c0.81,0.2722 1.17,0.5614 1.34,0.769c0.14,0.1764 0.27,0.4535 0.27,1.0258l4,0c0,-1.2756 -0.33,-2.4986 -1.16,-3.5326c-0.8,-1.003 -1.93,-1.6347 -3.17,-2.0525c-2.4,-0.8088 -5.88,-1.0229 -10.34,-1.0229l0,4zm12.67,4.608l8.64,0l0,-4l-8.64,0l0,4zm10.64,-2c0,-2.3954 -0.56,-4.5302 -1.7,-6.3578c-1.14,-1.8221 -2.79,-3.2193 -4.8,-4.265c-3.93,-2.05699 -9.42,-2.84918 -15.85,-2.84918l0,3.99998c6.24,0 10.93,0.7918 14,2.3948c1.5,0.7844 2.57,1.7361 3.26,2.8436c0.69,1.1019 1.09,2.477 1.09,4.2336l4,0zm-22.35,-13.47198c-6.34,0 -11.72,0.58059 -15.57,2.26768c-1.97,0.8584 -3.63,2.0432 -4.79,3.6703c-1.18,1.6449 -1.75,3.5994 -1.75,5.806l4,0c0,-1.4894 0.37,-2.6009 1,-3.4759c0.64,-0.893 1.65,-1.6822 3.14,-2.3358c3.06,-1.3369 7.73,-1.9323 13.97,-1.9323l0,-3.99998zm-22.11,11.74398c0,2.1396 0.41,4.0796 1.42,5.7577c1.01,1.6869 2.53,2.9387 4.43,3.8696c3.7,1.8038 9.2,2.5472 16.5,2.8826l0.19,-3.9958c-7.34,-0.3366 -12.06,-1.0811 -14.93,-2.4814c-1.38,-0.671 -2.23,-1.4502 -2.76,-2.3359c-0.54,-0.8943 -0.85,-2.0684 -0.85,-3.6968l-4,0zm22.35,12.5097c5.54,0.2683 8.47,0.5195 10.03,0.9732c0.75,0.2157 0.86,0.3944 0.84,0.3658c-0.05,-0.0585 0.04,-0.031 0.04,0.4553l4,0c0,-0.9056 -0.15,-1.9821 -0.9,-2.9301c-0.72,-0.9182 -1.77,-1.4145 -2.86,-1.7328c-2.12,-0.6143 -5.6,-0.8671 -10.96,-1.1267l-0.19,3.9953zm10.91,1.7943c0,0.2869 -0.06,0.3521 -0.09,0.384c-0.06,0.0785 -0.3,0.2963 -1.02,0.5253c-1.49,0.4758 -4.15,0.7387 -8.7,0.7387l0,4c4.53,0 7.77,-0.241 9.92,-0.9292c1.1,-0.3531 2.11,-0.8823 2.84,-1.7353c0.77,-0.8995 1.05,-1.9504 1.05,-2.9835l-4,0zm-9.81,1.648c-5.47,0 -8.57,-0.4223 -10.26,-1.1117c-0.79,-0.3234 -1.12,-0.6484 -1.28,-0.8837c-0.16,-0.2305 -0.28,-0.5731 -0.28,-1.1886l-4,0c0,1.1606 0.24,2.3539 0.96,3.4285c0.73,1.0696 1.8,1.8186 3.09,2.3473c2.49,1.0146 6.3,1.4082 11.77,1.4082l0,-4zm-13.82,-5.184l-8.64,0l0,4l8.64,0l0,-4z"/>
  <path opacity="0.8" id="svg_13" fill="url(#paint9_linear_202_13362)" d="m1841.272819,21.42654c0.28,-0.7413 1.32,-0.7413 1.6,0l2.86,7.7292c0.09,0.2331 0.27,0.4169 0.5,0.5031l7.73,2.8601c0.74,0.2743 0.74,1.3227 0,1.597l-7.73,2.8601c-0.23,0.0863 -0.41,0.27 -0.5,0.5031l-2.86,7.7292c-0.28,0.7413 -1.32,0.7413 -1.6,0l-2.86,-7.7292c-0.08,-0.2331 -0.27,-0.4168 -0.5,-0.5031l-7.73,-2.8601c-0.74,-0.2743 -0.74,-1.3227 0,-1.597l7.73,-2.8601c0.23,-0.0862 0.42,-0.27 0.5,-0.5031l2.86,-7.7292z"/>
  <path opacity="0.8" id="svg_16" fill="url(#paint8_linear_202_13362)" d="m1930.741026,13.71734l2,0l0,-1.99998l-2,0l0,1.99998zm-24.58,0l0,-1.99998l-2,0l0,1.99998l2,0zm0,7.248l-2,0l0,2l2,0l0,-2zm15.94,0l2,0l0,-2l-2,0l0,2zm-23.04,9.504l2,0l0,-2l-2,0l0,2zm-8.64,0l0,-2l-2,0l0,2l2,0zm40.32,-18.75198l-24.58,0l0,3.99998l24.58,0l0,-3.99998zm-26.58,1.99998l0,7.248l4,0l0,-7.248l-4,0zm2,9.248l15.94,0l0,-4l-15.94,0l0,4zm13.94,-2l0,9.504l4,0l0,-9.504l-4,0zm0,9.504c0,2.2148 -0.33,4.1326 -1.47,5.5118c-1.08,1.3062 -3.27,2.5682 -8.05,2.5682l0,4c5.44,0 9.01,-1.45 11.13,-4.0197c2.07,-2.4968 2.39,-5.6191 2.39,-8.0603l-4,0zm-9.52,8.08c-4.79,0 -6.98,-1.2531 -8.06,-2.5526c-1.14,-1.3711 -1.46,-3.2852 -1.46,-5.5274l-4,0c0,2.4619 0.31,5.5877 2.38,8.0806c2.13,2.5646 5.7,3.9994 11.14,3.9994l0,-4zm-11.52,-10.08l-8.64,0l0,4l8.64,0l0,-4zm-10.64,2c0,6.2094 1.69,11.1931 5.58,14.5679c3.84,3.3219 9.45,4.7601 16.58,4.7601l0,-4c-6.7,0 -11.17,-1.3697 -13.96,-3.7839c-2.73,-2.3612 -4.2,-6.0414 -4.2,-11.5441l-4,0zm22.16,19.328c7.1,0 12.71,-1.4525 16.55,-4.7782c3.9,-3.3777 5.61,-8.358 5.61,-14.5498l-4,0c0,5.4723 -1.49,9.156 -4.23,11.5263c-2.79,2.4222 -7.27,3.8017 -13.93,3.8017l0,4zm22.16,-19.328l0,-16.752l-4,0l0,16.752l4,0zm25.8,19.328c7.59,0 13.43,-1.5889 17.38,-4.968c4.02,-3.4322 5.74,-8.4055 5.74,-14.36l-4,0c0,5.1815 -1.48,8.8722 -4.34,11.32c-2.92,2.5009 -7.65,4.008 -14.78,4.008l0,4zm23.12,-19.328c0,-5.9333 -1.73,-10.8844 -5.74,-14.2979c-3.95,-3.35852 -9.79,-4.93408 -17.38,-4.93408l0,3.99998c7.14,0 11.86,1.4965 14.79,3.982c2.86,2.4304 4.33,6.0954 4.33,11.25l4,0zm-23.12,-19.23198c-7.62,0 -13.45,1.56145 -17.4,4.91588c-4.02,3.4107 -5.72,8.3652 -5.72,14.3161l4,0c0,-5.185 1.46,-8.8466 4.31,-11.2678c2.91,-2.4776 7.64,-3.9642 14.81,-3.9642l0,-3.99998zm-23.12,19.23198c0,5.9721 1.7,10.9488 5.71,14.3782c3.95,3.3751 9.79,4.9498 17.41,4.9498l0,-4c-7.17,0 -11.89,-1.4972 -14.81,-3.9902c-2.85,-2.4386 -4.31,-6.1259 -4.31,-11.3378l-4,0zm23.12,8.08c-4.34,0 -6.88,-0.7805 -8.33,-1.9878c-1.37,-1.1301 -2.15,-2.957 -2.15,-6.0922l-4,0c0,3.7769 0.96,6.9899 3.59,9.1719c2.54,2.1046 6.24,2.9081 10.89,2.9081l0,-4zm-10.48,-8.08c0,-3.1143 0.77,-4.9111 2.12,-6.0212c1.45,-1.1914 3.99,-1.9628 8.36,-1.9628l0,-4c-4.66,0 -8.36,0.7887 -10.9,2.8732c-2.63,2.166 -3.58,5.3612 -3.58,9.1108l4,0zm10.48,-7.984c4.35,0 6.9,0.7812 8.35,1.9785c1.35,1.1181 2.13,2.9191 2.13,6.0055l4,0c0,-3.7296 -0.96,-6.9206 -3.59,-9.0905c-2.53,-2.0907 -6.23,-2.8935 -10.89,-2.8935l0,4zm10.48,7.984c0,3.1073 -0.79,4.9384 -2.16,6.0765c-1.46,1.2132 -4,2.0035 -8.32,2.0035l0,4c4.65,0 8.34,-0.8176 10.88,-2.9284c2.63,-2.1859 3.6,-5.3948 3.6,-9.1516l-4,0zm26.26,-16.752l2,0l0,-1.99998l-2,0l0,1.99998zm-8.64,0l0,-1.99998l-2,0l0,1.99998l2,0zm0,33.6l-2,0l0,2l2,0l0,-2zm8.64,0l0,2l2,0l0,-2l-2,0zm0,-35.59998l-8.64,0l0,3.99998l8.64,0l0,-3.99998zm-10.64,1.99998l0,33.6l4,0l0,-33.6l-4,0zm2,35.6l8.64,0l0,-4l-8.64,0l0,4zm10.64,-2l0,-33.6l-4,0l0,33.6l4,0zm40.33,-33.6l0,-1.99998l-2,0l0,1.99998l2,0zm0,25.248l-1.48,1.3451l3.48,3.8296l0,-5.1747l-2,0zm-22.95,-25.248l1.48,-1.34504l-0.59,-0.65494l-0.89,0l0,1.99998zm-11.71,0l0,-1.99998l-2,0l0,1.99998l2,0zm0,33.6l-2,0l0,2l2,0l0,-2zm8.64,0l0,2l2,0l0,-2l-2,0zm0,-25.2l1.48,-1.3449l-3.48,-3.8305l0,5.1754l2,0zm22.9,25.2l-1.48,1.345l0.59,0.655l0.89,0l0,-2zm11.76,0l0,2l2,0l0,-2l-2,0zm0,-33.6l2,0l0,-1.99998l-2,0l0,1.99998zm-10.64,0l0,25.248l4,0l0,-25.248l-4,0zm3.48,23.903l-22.95,-25.24804l-2.96,2.69014l22.95,25.248l2.96,-2.6901zm-24.43,-25.90298l-11.71,0l0,3.99998l11.71,0l0,-3.99998zm-13.71,1.99998l0,33.6l4,0l0,-33.6l-4,0zm2,35.6l8.64,0l0,-4l-8.64,0l0,4zm10.64,-2l0,-25.2l-4,0l0,25.2l4,0zm-3.48,-23.8551l22.9,25.2001l2.96,-2.6899l-22.9,-25.2l-2.96,2.6898zm24.38,25.8551l11.76,0l0,-4l-11.76,0l0,4zm13.76,-2l0,-33.6l-4,0l0,33.6l4,0zm-2,-35.59998l-8.64,0l0,3.99998l8.64,0l0,-3.99998zm76,1.99998l2,0l0,-1.99998l-2,0l0,1.99998zm-8.64,0l0,-1.99998l-2,0l0,1.99998l2,0zm-24.96,0l2,0l0,-1.99998l-2,0l0,1.99998zm-8.64,0l0,-1.99998l-2,0l0,1.99998l2,0zm44.24,16.752l0,-16.752l-4,0l0,16.752l4,0zm-2,-18.75198l-8.64,0l0,3.99998l8.64,0l0,-3.99998zm-10.64,1.99998l0,16.752l4,0l0,-16.752l-4,0zm0,16.752c0,2.211 -0.33,4.0916 -1.54,5.4576c-1.19,1.3312 -3.63,2.6224 -8.94,2.6224l0,4c5.86,0 9.66,-1.4207 11.93,-3.9655c2.23,-2.51 2.55,-5.6695 2.55,-8.1145l-4,0zm-10.48,8.08c-5.32,0 -7.76,-1.2819 -8.94,-2.6067c-1.22,-1.358 -1.54,-3.2348 -1.54,-5.4733l-4,0c0,2.4656 0.32,5.6288 2.55,8.1348c2.26,2.5391 6.06,3.9452 11.93,3.9452l0,-4zm-10.48,-8.08l0,-16.752l-4,0l0,16.752l4,0zm-2,-18.75198l-8.64,0l0,3.99998l8.64,0l0,-3.99998zm-10.64,1.99998l0,16.752l4,0l0,-16.752l-4,0zm0,16.752c0,6.2118 1.69,11.2133 5.73,14.5907c3.96,3.3099 9.81,4.7373 17.39,4.7373l0,-4c-7.21,0 -11.92,-1.3806 -14.83,-3.8067c-2.82,-2.3585 -4.29,-6.0211 -4.29,-11.5213l-4,0zm23.12,19.328c7.56,0 13.4,-1.4414 17.36,-4.7555c4.05,-3.3804 5.76,-8.3782 5.76,-14.5725l-4,0c0,5.4698 -1.49,9.1359 -4.32,11.5036c-2.91,2.4338 -7.63,3.8244 -14.8,3.8244l0,4zm28.08,-14.048l0,-2l-2,0l0,2l2,0zm21.46,-8.688l-0.12,1.9966l0.01,0.0005l0.11,-1.9971zm11.37,-2.352l-2,0l0,2l2,0l0,-2zm8.64,0l0,2l2,0l0,-2l-2,0zm-20.01,8.784l0.09,-1.9976l0,-0.0003l-0.09,1.9979zm-12.82,2.256l2,0l0,-2l-2,0l0,2zm-10.64,0c0,2.7096 0.58,5.061 1.8,7.029c1.22,1.9716 3.01,3.4068 5.16,4.4362c4.22,2.0101 10.12,2.5828 17.02,2.5828l0,-4c-6.87,0 -11.96,-0.6032 -15.29,-2.1932c-1.62,-0.7705 -2.75,-1.7414 -3.49,-2.9377c-0.75,-1.2001 -1.2,-2.7787 -1.2,-4.9171l-4,0zm23.98,14.048c6.23,0 11.83,-0.4414 15.92,-2.196c2.09,-0.8966 3.88,-2.1745 5.14,-3.9925c1.26,-1.8274 1.87,-4.0406 1.87,-6.6115l-4,0c0,1.9172 -0.45,3.2979 -1.16,4.337c-0.73,1.0485 -1.84,1.9097 -3.43,2.591c-3.27,1.4015 -8.13,1.872 -14.34,1.872l0,4zm22.93,-12.8c0,-2.4586 -0.6,-4.5545 -1.9,-6.2525c-1.29,-1.6766 -3.1,-2.7676 -5.18,-3.5137c-4.05,-1.4527 -9.74,-1.8124 -16.27,-2.1668l-0.21,3.9941c6.72,0.3656 11.75,0.7258 15.13,1.9372c1.63,0.5858 2.69,1.3129 3.36,2.1832c0.65,0.849 1.07,2.0292 1.07,3.8185l4,0zm-23.34,-11.9325c-4.98,-0.2929 -7.66,-0.5531 -9.12,-0.9879c-0.69,-0.2072 -0.81,-0.3741 -0.79,-0.3466c0.06,0.0711 -0.01,0.0762 -0.01,-0.317l-4,0c0,0.9029 0.18,1.9399 0.92,2.8481c0.7,0.8645 1.7,1.3395 2.74,1.6483c2,0.5973 5.22,0.8651 10.03,1.1482l0.23,-3.9931zm-9.92,-1.6515c0,-0.1812 0.02,-0.2817 0.03,-0.3293c0.01,-0.0225 0.01,-0.0331 0.01,-0.0357c0,-0.0021 0,-0.0022 0,-0.0028c0,-0.0007 0.01,-0.008 0.02,-0.0215c0.02,-0.014 0.05,-0.0369 0.1,-0.0667c0.09,-0.0613 0.26,-0.1458 0.53,-0.2364c1.22,-0.4006 3.53,-0.6196 7.82,-0.6196l0,-4c-4.21,0 -7.15,0.189 -9.07,0.8205c-1,0.3317 -1.94,0.8499 -2.59,1.7183c-0.67,0.8868 -0.85,1.8813 -0.85,2.7732l4,0zm8.51,-1.312c4.51,0 7.37,0.242 9.06,0.8132c0.81,0.2722 1.17,0.5614 1.34,0.769c0.14,0.1764 0.27,0.4535 0.27,1.0258l4,0c0,-1.2756 -0.33,-2.4986 -1.16,-3.5326c-0.8,-1.003 -1.93,-1.6347 -3.17,-2.0525c-2.4,-0.8088 -5.88,-1.0229 -10.34,-1.0229l0,4zm12.67,4.608l8.64,0l0,-4l-8.64,0l0,4zm10.64,-2c0,-2.3954 -0.56,-4.5302 -1.7,-6.3578c-1.14,-1.8221 -2.79,-3.2193 -4.8,-4.265c-3.93,-2.05699 -9.42,-2.84918 -15.85,-2.84918l0,3.99998c6.24,0 10.93,0.7918 14,2.3948c1.5,0.7844 2.57,1.7361 3.26,2.8436c0.69,1.1019 1.09,2.477 1.09,4.2336l4,0zm-22.35,-13.47198c-6.34,0 -11.72,0.58059 -15.57,2.26768c-1.97,0.8584 -3.63,2.0432 -4.79,3.6703c-1.18,1.6449 -1.75,3.5994 -1.75,5.806l4,0c0,-1.4894 0.37,-2.6009 1,-3.4759c0.64,-0.893 1.65,-1.6822 3.14,-2.3358c3.06,-1.3369 7.73,-1.9323 13.97,-1.9323l0,-3.99998zm-22.11,11.74398c0,2.1396 0.41,4.0796 1.42,5.7577c1.01,1.6869 2.53,2.9387 4.43,3.8696c3.7,1.8038 9.2,2.5472 16.5,2.8826l0.19,-3.9958c-7.34,-0.3366 -12.06,-1.0811 -14.93,-2.4814c-1.38,-0.671 -2.23,-1.4502 -2.76,-2.3359c-0.54,-0.8943 -0.85,-2.0684 -0.85,-3.6968l-4,0zm22.35,12.5097c5.54,0.2683 8.47,0.5195 10.03,0.9732c0.75,0.2157 0.86,0.3944 0.84,0.3658c-0.05,-0.0585 0.04,-0.031 0.04,0.4553l4,0c0,-0.9056 -0.15,-1.9821 -0.9,-2.9301c-0.72,-0.9182 -1.77,-1.4145 -2.86,-1.7328c-2.12,-0.6143 -5.6,-0.8671 -10.96,-1.1267l-0.19,3.9953zm10.91,1.7943c0,0.2869 -0.06,0.3521 -0.09,0.384c-0.06,0.0785 -0.3,0.2963 -1.02,0.5253c-1.49,0.4758 -4.15,0.7387 -8.7,0.7387l0,4c4.53,0 7.77,-0.241 9.92,-0.9292c1.1,-0.3531 2.11,-0.8823 2.84,-1.7353c0.77,-0.8995 1.05,-1.9504 1.05,-2.9835l-4,0zm-9.81,1.648c-5.47,0 -8.57,-0.4223 -10.26,-1.1117c-0.79,-0.3234 -1.12,-0.6484 -1.28,-0.8837c-0.16,-0.2305 -0.28,-0.5731 -0.28,-1.1886l-4,0c0,1.1606 0.24,2.3539 0.96,3.4285c0.73,1.0696 1.8,1.8186 3.09,2.3473c2.49,1.0146 6.3,1.4082 11.77,1.4082l0,-4zm-13.82,-5.184l-8.64,0l0,4l8.64,0l0,-4z"/>
  <path opacity="0.8" id="svg_17" fill="url(#paint9_linear_202_13362)" d="m2217.601026,21.42654c0.28,-0.7413 1.32,-0.7413 1.6,0l2.86,7.7292c0.09,0.2331 0.27,0.4169 0.5,0.5031l7.73,2.8601c0.74,0.2743 0.74,1.3227 0,1.597l-7.73,2.8601c-0.23,0.0863 -0.41,0.27 -0.5,0.5031l-2.86,7.7292c-0.28,0.7413 -1.32,0.7413 -1.6,0l-2.86,-7.7292c-0.08,-0.2331 -0.27,-0.4168 -0.5,-0.5031l-7.73,-2.8601c-0.74,-0.2743 -0.74,-1.3227 0,-1.597l7.73,-2.8601c0.23,-0.0862 0.42,-0.27 0.5,-0.5031l2.86,-7.7292z"/>
 </g>
</svg>